<?xml version="1.0" encoding="utf-8"?>
<svg xmlns="http://www.w3.org/2000/svg" xmlns:xlink="http://www.w3.org/1999/xlink" width="600" height="400" viewBox="0 0 2400 1600">
<defs>
  <clipPath id="clip040">
    <rect x="0" y="0" width="2400" height="1600"/>
  </clipPath>
</defs>
<path clip-path="url(#clip040)" d="M0 1600 L2400 1600 L2400 0 L0 0  Z" fill="#ffffff" fill-rule="evenodd" fill-opacity="1"/>
<defs>
  <clipPath id="clip041">
    <rect x="232" y="47" width="2121" height="1101"/>
  </clipPath>
</defs>
<path clip-path="url(#clip040)" d="M232.389 1147.32 L2352.76 1147.32 L2352.76 47.2441 L232.389 47.2441  Z" fill="#ffffff" fill-rule="evenodd" fill-opacity="1"/>
<polyline clip-path="url(#clip041)" style="stroke:#000000; stroke-linecap:round; stroke-linejoin:round; stroke-width:2; stroke-opacity:0.1; fill:none" points="292.4,1147.32 292.4,47.2441 "/>
<polyline clip-path="url(#clip041)" style="stroke:#000000; stroke-linecap:round; stroke-linejoin:round; stroke-width:2; stroke-opacity:0.1; fill:none" points="814.229,1147.32 814.229,47.2441 "/>
<polyline clip-path="url(#clip041)" style="stroke:#000000; stroke-linecap:round; stroke-linejoin:round; stroke-width:2; stroke-opacity:0.1; fill:none" points="1336.06,1147.32 1336.06,47.2441 "/>
<polyline clip-path="url(#clip041)" style="stroke:#000000; stroke-linecap:round; stroke-linejoin:round; stroke-width:2; stroke-opacity:0.1; fill:none" points="1857.89,1147.32 1857.89,47.2441 "/>
<polyline clip-path="url(#clip041)" style="stroke:#000000; stroke-linecap:round; stroke-linejoin:round; stroke-width:2; stroke-opacity:0.1; fill:none" points="232.389,1115.4 2352.76,1115.4 "/>
<polyline clip-path="url(#clip041)" style="stroke:#000000; stroke-linecap:round; stroke-linejoin:round; stroke-width:2; stroke-opacity:0.1; fill:none" points="232.389,854.175 2352.76,854.175 "/>
<polyline clip-path="url(#clip041)" style="stroke:#000000; stroke-linecap:round; stroke-linejoin:round; stroke-width:2; stroke-opacity:0.1; fill:none" points="232.389,592.948 2352.76,592.948 "/>
<polyline clip-path="url(#clip041)" style="stroke:#000000; stroke-linecap:round; stroke-linejoin:round; stroke-width:2; stroke-opacity:0.1; fill:none" points="232.389,331.721 2352.76,331.721 "/>
<polyline clip-path="url(#clip041)" style="stroke:#000000; stroke-linecap:round; stroke-linejoin:round; stroke-width:2; stroke-opacity:0.1; fill:none" points="232.389,70.4946 2352.76,70.4946 "/>
<polyline clip-path="url(#clip040)" style="stroke:#000000; stroke-linecap:round; stroke-linejoin:round; stroke-width:4; stroke-opacity:1; fill:none" points="232.389,1147.32 2352.76,1147.32 "/>
<polyline clip-path="url(#clip040)" style="stroke:#000000; stroke-linecap:round; stroke-linejoin:round; stroke-width:4; stroke-opacity:1; fill:none" points="292.4,1147.32 292.4,1128.42 "/>
<polyline clip-path="url(#clip040)" style="stroke:#000000; stroke-linecap:round; stroke-linejoin:round; stroke-width:4; stroke-opacity:1; fill:none" points="814.229,1147.32 814.229,1128.42 "/>
<polyline clip-path="url(#clip040)" style="stroke:#000000; stroke-linecap:round; stroke-linejoin:round; stroke-width:4; stroke-opacity:1; fill:none" points="1336.06,1147.32 1336.06,1128.42 "/>
<polyline clip-path="url(#clip040)" style="stroke:#000000; stroke-linecap:round; stroke-linejoin:round; stroke-width:4; stroke-opacity:1; fill:none" points="1857.89,1147.32 1857.89,1128.42 "/>
<path clip-path="url(#clip040)" d="M290.599 1203.34 L304.732 1211.5 L302.764 1214.9 L283.76 1203.93 L285.727 1200.52 Q289.41 1199.47 295.694 1197.75 Q302.01 1196.03 303.703 1195.45 Q306.91 1194.39 308.539 1193.33 Q310.201 1192.26 311.046 1190.79 Q312.423 1188.41 311.607 1185.93 Q310.811 1183.47 308.125 1181.92 Q306.221 1180.82 303.714 1180.25 Q301.227 1179.7 298.046 1179.65 L300.407 1175.56 Q303.42 1175.99 305.834 1176.72 Q308.248 1177.44 310.012 1178.46 Q314.663 1181.15 316.087 1185.07 Q317.511 1188.99 315.266 1192.88 Q314.201 1194.73 312.539 1195.98 Q310.908 1197.23 307.787 1198.43 Q306.951 1198.72 302.655 1199.95 Q298.372 1201.17 290.599 1203.34 Z" fill="#000000" fill-rule="nonzero" fill-opacity="1" /><path clip-path="url(#clip040)" d="M335.665 1197.55 Q332.537 1195.74 329.171 1197.92 Q325.837 1200.08 322.272 1206.25 Q318.719 1212.41 318.5 1216.4 Q318.313 1220.38 321.44 1222.19 Q324.588 1224 327.922 1221.84 Q331.288 1219.67 334.841 1213.51 Q338.406 1207.34 338.593 1203.36 Q338.812 1199.37 335.665 1197.55 M337.517 1194.34 Q342.548 1197.25 342.891 1202.76 Q343.266 1208.27 338.891 1215.85 Q334.527 1223.41 329.558 1225.86 Q324.62 1228.3 319.588 1225.39 Q314.557 1222.49 314.182 1216.98 Q313.839 1211.46 318.203 1203.9 Q322.578 1196.33 327.515 1193.89 Q332.485 1191.44 337.517 1194.34 Z" fill="#000000" fill-rule="nonzero" fill-opacity="1" /><path clip-path="url(#clip040)" d="M342.841 1233.5 L356.974 1241.66 L355.006 1245.07 L336.002 1234.09 L337.969 1230.69 Q341.652 1229.63 347.936 1227.91 Q354.252 1226.19 355.945 1225.62 Q359.151 1224.55 360.781 1223.49 Q362.443 1222.42 363.288 1220.95 Q364.665 1218.57 363.849 1216.09 Q363.053 1213.63 360.367 1212.08 Q358.462 1210.98 355.956 1210.41 Q353.469 1209.86 350.288 1209.81 L352.649 1205.72 Q355.662 1206.15 358.076 1206.88 Q360.49 1207.6 362.254 1208.62 Q366.905 1211.31 368.329 1215.23 Q369.753 1219.15 367.508 1223.04 Q366.443 1224.89 364.78 1226.15 Q363.15 1227.4 360.029 1228.59 Q359.192 1228.88 354.897 1230.12 Q350.614 1231.33 342.841 1233.5 Z" fill="#000000" fill-rule="nonzero" fill-opacity="1" /><path clip-path="url(#clip040)" d="M385.092 1240.92 Q387.639 1243.22 388.129 1246.12 Q388.639 1249.03 386.972 1251.92 Q384.414 1256.35 379.967 1257.02 Q375.519 1257.68 369.906 1254.44 Q368.021 1253.36 366.237 1251.82 Q364.46 1250.31 362.764 1248.34 L365.021 1244.43 Q366.137 1246.39 367.853 1248.05 Q369.568 1249.71 371.753 1250.97 Q375.562 1253.17 378.415 1252.81 Q381.287 1252.46 382.943 1249.6 Q384.47 1246.95 383.462 1244.39 Q382.486 1241.82 379.178 1239.91 L375.69 1237.9 L377.612 1234.57 L381.26 1236.68 Q384.247 1238.4 386.514 1238.13 Q388.792 1237.84 390.088 1235.6 Q391.419 1233.29 390.481 1231.12 Q389.575 1228.94 386.528 1227.18 Q384.864 1226.22 382.751 1225.48 Q380.639 1224.74 377.913 1224.19 L379.997 1220.58 Q382.672 1221.27 384.862 1222.1 Q387.072 1222.95 388.856 1223.98 Q393.467 1226.64 394.938 1230.3 Q396.421 1233.94 394.361 1237.5 Q392.925 1239.99 390.507 1240.89 Q388.1 1241.77 385.092 1240.92 Z" fill="#000000" fill-rule="nonzero" fill-opacity="1" /><path clip-path="url(#clip040)" d="M394.683 1250.79 L405.488 1257.03 L403.59 1260.31 L392.785 1254.08 L394.683 1250.79 Z" fill="#000000" fill-rule="nonzero" fill-opacity="1" /><path clip-path="url(#clip040)" d="M428.842 1251.34 Q425.715 1249.54 422.349 1251.71 Q419.014 1253.88 415.45 1260.05 Q411.896 1266.2 411.678 1270.19 Q411.49 1274.18 414.618 1275.98 Q417.765 1277.8 421.1 1275.63 Q424.466 1273.46 428.019 1267.31 Q431.584 1261.13 431.771 1257.15 Q431.99 1253.16 428.842 1251.34 M430.694 1248.14 Q435.726 1251.04 436.069 1256.56 Q436.443 1262.07 432.068 1269.65 Q427.705 1277.2 422.735 1279.65 Q417.798 1282.09 412.766 1279.19 Q407.734 1276.28 407.36 1270.78 Q407.017 1265.26 411.38 1257.7 Q415.755 1250.12 420.693 1247.68 Q425.662 1245.23 430.694 1248.14 Z" fill="#000000" fill-rule="nonzero" fill-opacity="1" /><path clip-path="url(#clip040)" d="M433.231 1285.69 L439.847 1289.51 L453.03 1266.67 L445 1263.96 L447.129 1260.27 L455.119 1262.96 L459.169 1265.3 L443.856 1291.82 L450.472 1295.64 L448.504 1299.05 L431.264 1289.09 L433.231 1285.69 Z" fill="#000000" fill-rule="nonzero" fill-opacity="1" /><path clip-path="url(#clip040)" d="M461.74 1289.5 L472.545 1295.74 L470.647 1299.03 L459.842 1292.79 L461.74 1289.5 Z" fill="#000000" fill-rule="nonzero" fill-opacity="1" /><path clip-path="url(#clip040)" d="M495.899 1290.06 Q492.771 1288.25 489.405 1290.43 Q486.071 1292.59 482.506 1298.77 Q478.953 1304.92 478.734 1308.91 Q478.547 1312.89 481.674 1314.7 Q484.822 1316.51 488.156 1314.35 Q491.522 1312.18 495.075 1306.02 Q498.64 1299.85 498.827 1295.87 Q499.046 1291.88 495.899 1290.06 M497.75 1286.85 Q502.782 1289.76 503.125 1295.27 Q503.5 1300.78 499.125 1308.36 Q494.761 1315.92 489.792 1318.37 Q484.854 1320.81 479.822 1317.9 Q474.791 1315 474.416 1309.49 Q474.073 1303.97 478.436 1296.42 Q482.811 1288.84 487.749 1286.4 Q492.719 1283.95 497.75 1286.85 Z" fill="#000000" fill-rule="nonzero" fill-opacity="1" /><path clip-path="url(#clip040)" d="M500.288 1324.4 L506.903 1328.22 L520.086 1305.39 L512.056 1302.68 L514.186 1298.99 L522.176 1301.68 L526.225 1304.01 L510.913 1330.54 L517.528 1334.35 L515.561 1337.76 L498.32 1327.81 L500.288 1324.4 Z" fill="#000000" fill-rule="nonzero" fill-opacity="1" /><path clip-path="url(#clip040)" d="M536.509 1309.95 L561.828 1324.57 L559.861 1327.98 L549.236 1321.84 L533.923 1348.36 L529.854 1346.01 L545.166 1319.49 L534.542 1313.36 L536.509 1309.95 Z" fill="#000000" fill-rule="nonzero" fill-opacity="1" /><path clip-path="url(#clip040)" d="M573.219 1334.7 Q570.092 1332.89 566.726 1335.07 Q563.391 1337.23 559.826 1343.41 Q556.273 1349.56 556.054 1353.55 Q555.867 1357.53 558.995 1359.34 Q562.142 1361.15 565.476 1358.99 Q568.843 1356.82 572.396 1350.66 Q575.961 1344.49 576.148 1340.51 Q576.366 1336.52 573.219 1334.7 M575.071 1331.49 Q580.103 1334.4 580.446 1339.91 Q580.82 1345.42 576.445 1353 Q572.082 1360.56 567.112 1363.01 Q562.175 1365.45 557.143 1362.55 Q552.111 1359.64 551.736 1354.13 Q551.394 1348.61 555.757 1341.06 Q560.132 1333.48 565.07 1331.04 Q570.039 1328.59 575.071 1331.49 Z" fill="#000000" fill-rule="nonzero" fill-opacity="1" /><path clip-path="url(#clip040)" d="M599.34 1349.78 Q596.213 1347.98 592.847 1350.15 Q589.512 1352.31 585.947 1358.49 Q582.394 1364.64 582.175 1368.63 Q581.988 1372.61 585.116 1374.42 Q588.263 1376.24 591.597 1374.07 Q594.963 1371.9 598.517 1365.74 Q602.081 1359.57 602.269 1355.59 Q602.487 1351.6 599.34 1349.78 M601.192 1346.57 Q606.224 1349.48 606.567 1355 Q606.941 1360.5 602.566 1368.08 Q598.203 1375.64 593.233 1378.09 Q588.295 1380.53 583.264 1377.63 Q578.232 1374.72 577.857 1369.21 Q577.514 1363.7 581.878 1356.14 Q586.253 1348.56 591.191 1346.12 Q596.16 1343.67 601.192 1346.57 Z" fill="#000000" fill-rule="nonzero" fill-opacity="1" /><path clip-path="url(#clip040)" d="M604.421 1382.28 L608.651 1384.72 L605.711 1389.81 L601.481 1387.37 L604.421 1382.28 M613.738 1366.14 L617.968 1368.58 L615.028 1373.67 L610.798 1371.23 L613.738 1366.14 Z" fill="#000000" fill-rule="nonzero" fill-opacity="1" /><path clip-path="url(#clip040)" d="M639.293 1372.85 Q636.166 1371.04 632.8 1373.22 Q629.465 1375.38 625.901 1381.55 Q622.347 1387.71 622.129 1391.7 Q621.941 1395.68 625.069 1397.49 Q628.216 1399.3 631.551 1397.14 Q634.917 1394.97 638.47 1388.81 Q642.035 1382.64 642.222 1378.66 Q642.441 1374.67 639.293 1372.85 M641.145 1369.64 Q646.177 1372.55 646.52 1378.06 Q646.894 1383.57 642.519 1391.15 Q638.156 1398.71 633.187 1401.16 Q628.249 1403.6 623.217 1400.69 Q618.185 1397.79 617.811 1392.28 Q617.468 1386.76 621.831 1379.2 Q626.206 1371.63 631.144 1369.19 Q636.113 1366.74 641.145 1369.64 Z" fill="#000000" fill-rule="nonzero" fill-opacity="1" /><path clip-path="url(#clip040)" d="M665.414 1387.93 Q662.287 1386.12 658.921 1388.3 Q655.586 1390.46 652.022 1396.64 Q648.468 1402.79 648.25 1406.78 Q648.062 1410.76 651.19 1412.57 Q654.337 1414.38 657.672 1412.22 Q661.038 1410.05 664.591 1403.89 Q668.156 1397.72 668.343 1393.74 Q668.562 1389.75 665.414 1387.93 M667.266 1384.72 Q672.298 1387.63 672.641 1393.14 Q673.015 1398.65 668.64 1406.23 Q664.277 1413.79 659.307 1416.24 Q654.37 1418.68 649.338 1415.77 Q644.306 1412.87 643.932 1407.36 Q643.589 1401.84 647.952 1394.29 Q652.327 1386.71 657.265 1384.27 Q662.234 1381.82 667.266 1384.72 Z" fill="#000000" fill-rule="nonzero" fill-opacity="1" /><path clip-path="url(#clip040)" d="M670.495 1420.42 L674.725 1422.87 L671.785 1427.96 L667.555 1425.52 L670.495 1420.42 M679.812 1404.29 L684.042 1406.73 L681.102 1411.82 L676.872 1409.38 L679.812 1404.29 Z" fill="#000000" fill-rule="nonzero" fill-opacity="1" /><path clip-path="url(#clip040)" d="M705.367 1411 Q702.24 1409.19 698.874 1411.36 Q695.54 1413.53 691.975 1419.7 Q688.422 1425.86 688.203 1429.85 Q688.016 1433.83 691.143 1435.63 Q694.29 1437.45 697.625 1435.29 Q700.991 1433.11 704.544 1426.96 Q708.109 1420.78 708.296 1416.8 Q708.515 1412.81 705.367 1411 M707.219 1407.79 Q712.251 1410.69 712.594 1416.21 Q712.969 1421.72 708.594 1429.3 Q704.23 1436.85 699.261 1439.3 Q694.323 1441.75 689.291 1438.84 Q684.259 1435.94 683.885 1430.43 Q683.542 1424.91 687.905 1417.35 Q692.28 1409.78 697.218 1407.33 Q702.188 1404.88 707.219 1407.79 Z" fill="#000000" fill-rule="nonzero" fill-opacity="1" /><path clip-path="url(#clip040)" d="M731.488 1426.08 Q728.361 1424.27 724.995 1426.44 Q721.661 1428.61 718.096 1434.78 Q714.542 1440.94 714.324 1444.93 Q714.137 1448.91 717.264 1450.71 Q720.411 1452.53 723.746 1450.37 Q727.112 1448.19 730.665 1442.04 Q734.23 1435.87 734.417 1431.88 Q734.636 1427.89 731.488 1426.08 M733.34 1422.87 Q738.372 1425.77 738.715 1431.29 Q739.089 1436.8 734.714 1444.38 Q730.351 1451.94 725.382 1454.39 Q720.444 1456.83 715.412 1453.92 Q710.38 1451.02 710.006 1445.51 Q709.663 1439.99 714.026 1432.43 Q718.401 1424.86 723.339 1422.41 Q728.308 1419.96 733.34 1422.87 Z" fill="#000000" fill-rule="nonzero" fill-opacity="1" /><path clip-path="url(#clip040)" d="M812.428 1203.34 L826.561 1211.5 L824.593 1214.9 L805.589 1203.93 L807.557 1200.52 Q811.239 1199.47 817.523 1197.75 Q823.839 1196.03 825.533 1195.45 Q828.739 1194.39 830.369 1193.33 Q832.03 1192.26 832.875 1190.79 Q834.252 1188.41 833.436 1185.93 Q832.641 1183.47 829.954 1181.92 Q828.05 1180.82 825.543 1180.25 Q823.056 1179.7 819.875 1179.65 L822.236 1175.56 Q825.249 1175.99 827.663 1176.72 Q830.078 1177.44 831.842 1178.46 Q836.493 1181.15 837.916 1185.07 Q839.34 1188.99 837.095 1192.88 Q836.03 1194.73 834.368 1195.98 Q832.737 1197.23 829.617 1198.43 Q828.78 1198.72 824.485 1199.95 Q820.201 1201.17 812.428 1203.34 Z" fill="#000000" fill-rule="nonzero" fill-opacity="1" /><path clip-path="url(#clip040)" d="M857.494 1197.55 Q854.367 1195.74 851.001 1197.92 Q847.666 1200.08 844.101 1206.25 Q840.548 1212.41 840.329 1216.4 Q840.142 1220.38 843.27 1222.19 Q846.417 1224 849.751 1221.84 Q853.118 1219.67 856.671 1213.51 Q860.236 1207.34 860.423 1203.36 Q860.641 1199.37 857.494 1197.55 M859.346 1194.34 Q864.378 1197.25 864.721 1202.76 Q865.095 1208.27 860.72 1215.85 Q856.357 1223.41 851.387 1225.86 Q846.45 1228.3 841.418 1225.39 Q836.386 1222.49 836.011 1216.98 Q835.669 1211.46 840.032 1203.9 Q844.407 1196.33 849.345 1193.89 Q854.314 1191.44 859.346 1194.34 Z" fill="#000000" fill-rule="nonzero" fill-opacity="1" /><path clip-path="url(#clip040)" d="M864.67 1233.5 L878.803 1241.66 L876.835 1245.07 L857.831 1234.09 L859.799 1230.69 Q863.481 1229.63 869.765 1227.91 Q876.081 1226.19 877.775 1225.62 Q880.981 1224.55 882.611 1223.49 Q884.272 1222.42 885.117 1220.95 Q886.494 1218.57 885.678 1216.09 Q884.883 1213.63 882.196 1212.08 Q880.292 1210.98 877.785 1210.41 Q875.298 1209.86 872.117 1209.81 L874.478 1205.72 Q877.491 1206.15 879.905 1206.88 Q882.32 1207.6 884.084 1208.62 Q888.735 1211.31 890.158 1215.23 Q891.582 1219.15 889.337 1223.04 Q888.272 1224.89 886.61 1226.15 Q884.979 1227.4 881.859 1228.59 Q881.022 1228.88 876.727 1230.12 Q872.443 1231.33 864.67 1233.5 Z" fill="#000000" fill-rule="nonzero" fill-opacity="1" /><path clip-path="url(#clip040)" d="M906.921 1240.92 Q909.469 1243.22 909.958 1246.12 Q910.468 1249.03 908.801 1251.92 Q906.243 1256.35 901.796 1257.02 Q897.348 1257.68 891.735 1254.44 Q889.851 1253.36 888.066 1251.82 Q886.29 1250.31 884.593 1248.34 L886.85 1244.43 Q887.967 1246.39 889.682 1248.05 Q891.397 1249.71 893.583 1250.97 Q897.391 1253.17 900.244 1252.81 Q903.117 1252.46 904.772 1249.6 Q906.3 1246.95 905.292 1244.39 Q904.316 1241.82 901.008 1239.91 L897.52 1237.9 L899.441 1234.57 L903.089 1236.68 Q906.076 1238.4 908.343 1238.13 Q910.621 1237.84 911.917 1235.6 Q913.248 1233.29 912.311 1231.12 Q911.404 1228.94 908.357 1227.18 Q906.693 1226.22 904.581 1225.48 Q902.468 1224.74 899.743 1224.19 L901.826 1220.58 Q904.502 1221.27 906.692 1222.1 Q908.902 1222.95 910.686 1223.98 Q915.297 1226.64 916.767 1230.3 Q918.25 1233.94 916.19 1237.5 Q914.755 1239.99 912.336 1240.89 Q909.929 1241.77 906.921 1240.92 Z" fill="#000000" fill-rule="nonzero" fill-opacity="1" /><path clip-path="url(#clip040)" d="M916.513 1250.79 L927.318 1257.03 L925.42 1260.31 L914.614 1254.08 L916.513 1250.79 Z" fill="#000000" fill-rule="nonzero" fill-opacity="1" /><path clip-path="url(#clip040)" d="M950.672 1251.34 Q947.544 1249.54 944.178 1251.71 Q940.844 1253.88 937.279 1260.05 Q933.726 1266.2 933.507 1270.19 Q933.32 1274.18 936.447 1275.98 Q939.594 1277.8 942.929 1275.63 Q946.295 1273.46 949.848 1267.31 Q953.413 1261.13 953.6 1257.15 Q953.819 1253.16 950.672 1251.34 M952.523 1248.14 Q957.555 1251.04 957.898 1256.56 Q958.273 1262.07 953.898 1269.65 Q949.534 1277.2 944.565 1279.65 Q939.627 1282.09 934.595 1279.19 Q929.563 1276.28 929.189 1270.78 Q928.846 1265.26 933.209 1257.7 Q937.584 1250.12 942.522 1247.68 Q947.492 1245.23 952.523 1248.14 Z" fill="#000000" fill-rule="nonzero" fill-opacity="1" /><path clip-path="url(#clip040)" d="M955.061 1285.69 L961.676 1289.51 L974.859 1266.67 L966.829 1263.96 L968.959 1260.27 L976.949 1262.96 L980.998 1265.3 L965.686 1291.82 L972.301 1295.64 L970.333 1299.05 L953.093 1289.09 L955.061 1285.69 Z" fill="#000000" fill-rule="nonzero" fill-opacity="1" /><path clip-path="url(#clip040)" d="M983.569 1289.5 L994.374 1295.74 L992.476 1299.03 L981.671 1292.79 L983.569 1289.5 Z" fill="#000000" fill-rule="nonzero" fill-opacity="1" /><path clip-path="url(#clip040)" d="M1017.73 1290.06 Q1014.6 1288.25 1011.23 1290.43 Q1007.9 1292.59 1004.34 1298.77 Q1000.78 1304.92 1000.56 1308.91 Q1000.38 1312.89 1003.5 1314.7 Q1006.65 1316.51 1009.99 1314.35 Q1013.35 1312.18 1016.9 1306.02 Q1020.47 1299.85 1020.66 1295.87 Q1020.88 1291.88 1017.73 1290.06 M1019.58 1286.85 Q1024.61 1289.76 1024.95 1295.27 Q1025.33 1300.78 1020.95 1308.36 Q1016.59 1315.92 1011.62 1318.37 Q1006.68 1320.81 1001.65 1317.9 Q996.62 1315 996.245 1309.49 Q995.902 1303.97 1000.27 1296.42 Q1004.64 1288.84 1009.58 1286.4 Q1014.55 1283.95 1019.58 1286.85 Z" fill="#000000" fill-rule="nonzero" fill-opacity="1" /><path clip-path="url(#clip040)" d="M1022.12 1324.4 L1028.73 1328.22 L1041.92 1305.39 L1033.89 1302.68 L1036.02 1298.99 L1044.01 1301.68 L1048.05 1304.01 L1032.74 1330.54 L1039.36 1334.35 L1037.39 1337.76 L1020.15 1327.81 L1022.12 1324.4 Z" fill="#000000" fill-rule="nonzero" fill-opacity="1" /><path clip-path="url(#clip040)" d="M1058.34 1309.95 L1083.66 1324.57 L1081.69 1327.98 L1071.07 1321.84 L1055.75 1348.36 L1051.68 1346.01 L1067 1319.49 L1056.37 1313.36 L1058.34 1309.95 Z" fill="#000000" fill-rule="nonzero" fill-opacity="1" /><path clip-path="url(#clip040)" d="M1095.05 1334.7 Q1091.92 1332.89 1088.56 1335.07 Q1085.22 1337.23 1081.66 1343.41 Q1078.1 1349.56 1077.88 1353.55 Q1077.7 1357.53 1080.82 1359.34 Q1083.97 1361.15 1087.31 1358.99 Q1090.67 1356.82 1094.23 1350.66 Q1097.79 1344.49 1097.98 1340.51 Q1098.2 1336.52 1095.05 1334.7 M1096.9 1331.49 Q1101.93 1334.4 1102.27 1339.91 Q1102.65 1345.42 1098.27 1353 Q1093.91 1360.56 1088.94 1363.01 Q1084 1365.45 1078.97 1362.55 Q1073.94 1359.64 1073.57 1354.13 Q1073.22 1348.61 1077.59 1341.06 Q1081.96 1333.48 1086.9 1331.04 Q1091.87 1328.59 1096.9 1331.49 Z" fill="#000000" fill-rule="nonzero" fill-opacity="1" /><path clip-path="url(#clip040)" d="M1115.5 1360.76 Q1112.78 1359.18 1110.1 1360.12 Q1107.44 1361.07 1105.56 1364.32 Q1103.7 1367.55 1104.19 1370.34 Q1104.72 1373.13 1107.45 1374.71 Q1110.17 1376.28 1112.83 1375.33 Q1115.52 1374.37 1117.39 1371.15 Q1119.26 1367.9 1118.74 1365.11 Q1118.23 1362.33 1115.5 1360.76 M1130.87 1352.71 L1128.74 1356.4 Q1127.63 1354.79 1126.29 1353.51 Q1124.96 1352.24 1123.44 1351.36 Q1119.43 1349.04 1115.74 1350.52 Q1112.07 1352.01 1108.61 1357.31 Q1110.8 1356.25 1113.12 1356.36 Q1115.45 1356.45 1117.59 1357.69 Q1122.1 1360.29 1123.12 1364.54 Q1124.18 1368.78 1121.46 1373.5 Q1118.8 1378.11 1114.46 1379.32 Q1110.12 1380.53 1105.59 1377.92 Q1100.4 1374.92 1099.95 1369.36 Q1099.5 1363.79 1103.87 1356.23 Q1107.96 1349.13 1113.76 1346.87 Q1119.57 1344.58 1125.25 1347.86 Q1126.77 1348.74 1128.14 1349.93 Q1129.53 1351.13 1130.87 1352.71 Z" fill="#000000" fill-rule="nonzero" fill-opacity="1" /><path clip-path="url(#clip040)" d="M1126.25 1382.28 L1130.48 1384.72 L1127.54 1389.81 L1123.31 1387.37 L1126.25 1382.28 M1135.57 1366.14 L1139.8 1368.58 L1136.86 1373.67 L1132.63 1371.23 L1135.57 1366.14 Z" fill="#000000" fill-rule="nonzero" fill-opacity="1" /><path clip-path="url(#clip040)" d="M1161.12 1372.85 Q1158 1371.04 1154.63 1373.22 Q1151.29 1375.38 1147.73 1381.55 Q1144.18 1387.71 1143.96 1391.7 Q1143.77 1395.68 1146.9 1397.49 Q1150.05 1399.3 1153.38 1397.14 Q1156.75 1394.97 1160.3 1388.81 Q1163.86 1382.64 1164.05 1378.66 Q1164.27 1374.67 1161.12 1372.85 M1162.97 1369.64 Q1168.01 1372.55 1168.35 1378.06 Q1168.72 1383.57 1164.35 1391.15 Q1159.99 1398.71 1155.02 1401.16 Q1150.08 1403.6 1145.05 1400.69 Q1140.01 1397.79 1139.64 1392.28 Q1139.3 1386.76 1143.66 1379.2 Q1148.04 1371.63 1152.97 1369.19 Q1157.94 1366.74 1162.97 1369.64 Z" fill="#000000" fill-rule="nonzero" fill-opacity="1" /><path clip-path="url(#clip040)" d="M1187.24 1387.93 Q1184.12 1386.12 1180.75 1388.3 Q1177.42 1390.46 1173.85 1396.64 Q1170.3 1402.79 1170.08 1406.78 Q1169.89 1410.76 1173.02 1412.57 Q1176.17 1414.38 1179.5 1412.22 Q1182.87 1410.05 1186.42 1403.89 Q1189.99 1397.72 1190.17 1393.74 Q1190.39 1389.75 1187.24 1387.93 M1189.1 1384.72 Q1194.13 1387.63 1194.47 1393.14 Q1194.84 1398.65 1190.47 1406.23 Q1186.11 1413.79 1181.14 1416.24 Q1176.2 1418.68 1171.17 1415.77 Q1166.14 1412.87 1165.76 1407.36 Q1165.42 1401.84 1169.78 1394.29 Q1174.16 1386.71 1179.09 1384.27 Q1184.06 1381.82 1189.1 1384.72 Z" fill="#000000" fill-rule="nonzero" fill-opacity="1" /><path clip-path="url(#clip040)" d="M1192.32 1420.42 L1196.55 1422.87 L1193.61 1427.96 L1189.38 1425.52 L1192.32 1420.42 M1201.64 1404.29 L1205.87 1406.73 L1202.93 1411.82 L1198.7 1409.38 L1201.64 1404.29 Z" fill="#000000" fill-rule="nonzero" fill-opacity="1" /><path clip-path="url(#clip040)" d="M1227.2 1411 Q1224.07 1409.19 1220.7 1411.36 Q1217.37 1413.53 1213.8 1419.7 Q1210.25 1425.86 1210.03 1429.85 Q1209.85 1433.83 1212.97 1435.63 Q1216.12 1437.45 1219.45 1435.29 Q1222.82 1433.11 1226.37 1426.96 Q1229.94 1420.78 1230.13 1416.8 Q1230.34 1412.81 1227.2 1411 M1229.05 1407.79 Q1234.08 1410.69 1234.42 1416.21 Q1234.8 1421.72 1230.42 1429.3 Q1226.06 1436.85 1221.09 1439.3 Q1216.15 1441.75 1211.12 1438.84 Q1206.09 1435.94 1205.71 1430.43 Q1205.37 1424.91 1209.73 1417.35 Q1214.11 1409.78 1219.05 1407.33 Q1224.02 1404.88 1229.05 1407.79 Z" fill="#000000" fill-rule="nonzero" fill-opacity="1" /><path clip-path="url(#clip040)" d="M1253.32 1426.08 Q1250.19 1424.27 1246.82 1426.44 Q1243.49 1428.61 1239.93 1434.78 Q1236.37 1440.94 1236.15 1444.93 Q1235.97 1448.91 1239.09 1450.71 Q1242.24 1452.53 1245.58 1450.37 Q1248.94 1448.19 1252.49 1442.04 Q1256.06 1435.87 1256.25 1431.88 Q1256.47 1427.89 1253.32 1426.08 M1255.17 1422.87 Q1260.2 1425.77 1260.54 1431.29 Q1260.92 1436.8 1256.54 1444.38 Q1252.18 1451.94 1247.21 1454.39 Q1242.27 1456.83 1237.24 1453.92 Q1232.21 1451.02 1231.84 1445.51 Q1231.49 1439.99 1235.86 1432.43 Q1240.23 1424.86 1245.17 1422.41 Q1250.14 1419.96 1255.17 1422.87 Z" fill="#000000" fill-rule="nonzero" fill-opacity="1" /><path clip-path="url(#clip040)" d="M1334.26 1203.34 L1348.39 1211.5 L1346.42 1214.9 L1327.42 1203.93 L1329.39 1200.52 Q1333.07 1199.47 1339.35 1197.75 Q1345.67 1196.03 1347.36 1195.45 Q1350.57 1194.39 1352.2 1193.33 Q1353.86 1192.26 1354.7 1190.79 Q1356.08 1188.41 1355.27 1185.93 Q1354.47 1183.47 1351.78 1181.92 Q1349.88 1180.82 1347.37 1180.25 Q1344.89 1179.7 1341.7 1179.65 L1344.07 1175.56 Q1347.08 1175.99 1349.49 1176.72 Q1351.91 1177.44 1353.67 1178.46 Q1358.32 1181.15 1359.75 1185.07 Q1361.17 1188.99 1358.92 1192.88 Q1357.86 1194.73 1356.2 1195.98 Q1354.57 1197.23 1351.45 1198.43 Q1350.61 1198.72 1346.31 1199.95 Q1342.03 1201.17 1334.26 1203.34 Z" fill="#000000" fill-rule="nonzero" fill-opacity="1" /><path clip-path="url(#clip040)" d="M1379.32 1197.55 Q1376.2 1195.74 1372.83 1197.92 Q1369.5 1200.08 1365.93 1206.25 Q1362.38 1212.41 1362.16 1216.4 Q1361.97 1220.38 1365.1 1222.19 Q1368.25 1224 1371.58 1221.84 Q1374.95 1219.67 1378.5 1213.51 Q1382.06 1207.34 1382.25 1203.36 Q1382.47 1199.37 1379.32 1197.55 M1381.18 1194.34 Q1386.21 1197.25 1386.55 1202.76 Q1386.92 1208.27 1382.55 1215.85 Q1378.19 1223.41 1373.22 1225.86 Q1368.28 1228.3 1363.25 1225.39 Q1358.22 1222.49 1357.84 1216.98 Q1357.5 1211.46 1361.86 1203.9 Q1366.24 1196.33 1371.17 1193.89 Q1376.14 1191.44 1381.18 1194.34 Z" fill="#000000" fill-rule="nonzero" fill-opacity="1" /><path clip-path="url(#clip040)" d="M1386.5 1233.5 L1400.63 1241.66 L1398.66 1245.07 L1379.66 1234.09 L1381.63 1230.69 Q1385.31 1229.63 1391.59 1227.91 Q1397.91 1226.19 1399.6 1225.62 Q1402.81 1224.55 1404.44 1223.49 Q1406.1 1222.42 1406.95 1220.95 Q1408.32 1218.57 1407.51 1216.09 Q1406.71 1213.63 1404.03 1212.08 Q1402.12 1210.98 1399.61 1210.41 Q1397.13 1209.86 1393.95 1209.81 L1396.31 1205.72 Q1399.32 1206.15 1401.73 1206.88 Q1404.15 1207.6 1405.91 1208.62 Q1410.56 1211.31 1411.99 1215.23 Q1413.41 1219.15 1411.17 1223.04 Q1410.1 1224.89 1408.44 1226.15 Q1406.81 1227.4 1403.69 1228.59 Q1402.85 1228.88 1398.56 1230.12 Q1394.27 1231.33 1386.5 1233.5 Z" fill="#000000" fill-rule="nonzero" fill-opacity="1" /><path clip-path="url(#clip040)" d="M1428.75 1240.92 Q1431.3 1243.22 1431.79 1246.12 Q1432.3 1249.03 1430.63 1251.92 Q1428.07 1256.35 1423.63 1257.02 Q1419.18 1257.68 1413.56 1254.44 Q1411.68 1253.36 1409.9 1251.82 Q1408.12 1250.31 1406.42 1248.34 L1408.68 1244.43 Q1409.8 1246.39 1411.51 1248.05 Q1413.23 1249.71 1415.41 1250.97 Q1419.22 1253.17 1422.07 1252.81 Q1424.95 1252.46 1426.6 1249.6 Q1428.13 1246.95 1427.12 1244.39 Q1426.14 1241.82 1422.84 1239.91 L1419.35 1237.9 L1421.27 1234.57 L1424.92 1236.68 Q1427.91 1238.4 1430.17 1238.13 Q1432.45 1237.84 1433.75 1235.6 Q1435.08 1233.29 1434.14 1231.12 Q1433.23 1228.94 1430.19 1227.18 Q1428.52 1226.22 1426.41 1225.48 Q1424.3 1224.74 1421.57 1224.19 L1423.66 1220.58 Q1426.33 1221.27 1428.52 1222.1 Q1430.73 1222.95 1432.52 1223.98 Q1437.13 1226.64 1438.6 1230.3 Q1440.08 1233.94 1438.02 1237.5 Q1436.58 1239.99 1434.17 1240.89 Q1431.76 1241.77 1428.75 1240.92 Z" fill="#000000" fill-rule="nonzero" fill-opacity="1" /><path clip-path="url(#clip040)" d="M1438.34 1250.79 L1449.15 1257.03 L1447.25 1260.31 L1436.44 1254.08 L1438.34 1250.79 Z" fill="#000000" fill-rule="nonzero" fill-opacity="1" /><path clip-path="url(#clip040)" d="M1472.5 1251.34 Q1469.37 1249.54 1466.01 1251.71 Q1462.67 1253.88 1459.11 1260.05 Q1455.55 1266.2 1455.34 1270.19 Q1455.15 1274.18 1458.28 1275.98 Q1461.42 1277.8 1464.76 1275.63 Q1468.12 1273.46 1471.68 1267.31 Q1475.24 1261.13 1475.43 1257.15 Q1475.65 1253.16 1472.5 1251.34 M1474.35 1248.14 Q1479.38 1251.04 1479.73 1256.56 Q1480.1 1262.07 1475.73 1269.65 Q1471.36 1277.2 1466.39 1279.65 Q1461.46 1282.09 1456.42 1279.19 Q1451.39 1276.28 1451.02 1270.78 Q1450.68 1265.26 1455.04 1257.7 Q1459.41 1250.12 1464.35 1247.68 Q1469.32 1245.23 1474.35 1248.14 Z" fill="#000000" fill-rule="nonzero" fill-opacity="1" /><path clip-path="url(#clip040)" d="M1476.89 1285.69 L1483.51 1289.51 L1496.69 1266.67 L1488.66 1263.96 L1490.79 1260.27 L1498.78 1262.96 L1502.83 1265.3 L1487.51 1291.82 L1494.13 1295.64 L1492.16 1299.05 L1474.92 1289.09 L1476.89 1285.69 Z" fill="#000000" fill-rule="nonzero" fill-opacity="1" /><path clip-path="url(#clip040)" d="M1505.4 1289.5 L1516.2 1295.74 L1514.31 1299.03 L1503.5 1292.79 L1505.4 1289.5 Z" fill="#000000" fill-rule="nonzero" fill-opacity="1" /><path clip-path="url(#clip040)" d="M1539.56 1290.06 Q1536.43 1288.25 1533.06 1290.43 Q1529.73 1292.59 1526.16 1298.77 Q1522.61 1304.92 1522.39 1308.91 Q1522.21 1312.89 1525.33 1314.7 Q1528.48 1316.51 1531.81 1314.35 Q1535.18 1312.18 1538.73 1306.02 Q1542.3 1299.85 1542.49 1295.87 Q1542.7 1291.88 1539.56 1290.06 M1541.41 1286.85 Q1546.44 1289.76 1546.78 1295.27 Q1547.16 1300.78 1542.78 1308.36 Q1538.42 1315.92 1533.45 1318.37 Q1528.51 1320.81 1523.48 1317.9 Q1518.45 1315 1518.07 1309.49 Q1517.73 1303.97 1522.1 1296.42 Q1526.47 1288.84 1531.41 1286.4 Q1536.38 1283.95 1541.41 1286.85 Z" fill="#000000" fill-rule="nonzero" fill-opacity="1" /><path clip-path="url(#clip040)" d="M1543.95 1324.4 L1550.56 1328.22 L1563.74 1305.39 L1555.71 1302.68 L1557.84 1298.99 L1565.83 1301.68 L1569.88 1304.01 L1554.57 1330.54 L1561.19 1334.35 L1559.22 1337.76 L1541.98 1327.81 L1543.95 1324.4 Z" fill="#000000" fill-rule="nonzero" fill-opacity="1" /><path clip-path="url(#clip040)" d="M1580.17 1309.95 L1605.49 1324.57 L1603.52 1327.98 L1592.89 1321.84 L1577.58 1348.36 L1573.51 1346.01 L1588.83 1319.49 L1578.2 1313.36 L1580.17 1309.95 Z" fill="#000000" fill-rule="nonzero" fill-opacity="1" /><path clip-path="url(#clip040)" d="M1595.15 1353.96 L1601.76 1357.78 L1614.94 1334.95 L1606.91 1332.24 L1609.04 1328.55 L1617.03 1331.24 L1621.08 1333.57 L1605.77 1360.1 L1612.39 1363.91 L1610.42 1367.32 L1593.18 1357.37 L1595.15 1353.96 Z" fill="#000000" fill-rule="nonzero" fill-opacity="1" /><path clip-path="url(#clip040)" d="M1624.05 1370.65 L1638.19 1378.81 L1636.22 1382.22 L1617.21 1371.25 L1619.18 1367.84 Q1622.86 1366.78 1629.15 1365.07 Q1635.46 1363.34 1637.16 1362.77 Q1640.36 1361.71 1641.99 1360.64 Q1643.66 1359.57 1644.5 1358.11 Q1645.88 1355.72 1645.06 1353.24 Q1644.27 1350.78 1641.58 1349.23 Q1639.68 1348.13 1637.17 1347.56 Q1634.68 1347.01 1631.5 1346.97 L1633.86 1342.88 Q1636.87 1343.31 1639.29 1344.03 Q1641.7 1344.76 1643.47 1345.78 Q1648.12 1348.46 1649.54 1352.38 Q1650.97 1356.31 1648.72 1360.19 Q1647.66 1362.04 1645.99 1363.3 Q1644.36 1364.55 1641.24 1365.74 Q1640.41 1366.03 1636.11 1367.27 Q1631.83 1368.48 1624.05 1370.65 Z" fill="#000000" fill-rule="nonzero" fill-opacity="1" /><path clip-path="url(#clip040)" d="M1648.08 1382.28 L1652.31 1384.72 L1649.37 1389.81 L1645.14 1387.37 L1648.08 1382.28 M1657.4 1366.14 L1661.63 1368.58 L1658.69 1373.67 L1654.46 1371.23 L1657.4 1366.14 Z" fill="#000000" fill-rule="nonzero" fill-opacity="1" /><path clip-path="url(#clip040)" d="M1682.95 1372.85 Q1679.82 1371.04 1676.46 1373.22 Q1673.12 1375.38 1669.56 1381.55 Q1666.01 1387.71 1665.79 1391.7 Q1665.6 1395.68 1668.73 1397.49 Q1671.87 1399.3 1675.21 1397.14 Q1678.58 1394.97 1682.13 1388.81 Q1685.69 1382.64 1685.88 1378.66 Q1686.1 1374.67 1682.95 1372.85 M1684.8 1369.64 Q1689.84 1372.55 1690.18 1378.06 Q1690.55 1383.57 1686.18 1391.15 Q1681.81 1398.71 1676.85 1401.16 Q1671.91 1403.6 1666.88 1400.69 Q1661.84 1397.79 1661.47 1392.28 Q1661.13 1386.76 1665.49 1379.2 Q1669.86 1371.63 1674.8 1369.19 Q1679.77 1366.74 1684.8 1369.64 Z" fill="#000000" fill-rule="nonzero" fill-opacity="1" /><path clip-path="url(#clip040)" d="M1709.07 1387.93 Q1705.95 1386.12 1702.58 1388.3 Q1699.25 1390.46 1695.68 1396.64 Q1692.13 1402.79 1691.91 1406.78 Q1691.72 1410.76 1694.85 1412.57 Q1698 1414.38 1701.33 1412.22 Q1704.7 1410.05 1708.25 1403.89 Q1711.81 1397.72 1712 1393.74 Q1712.22 1389.75 1709.07 1387.93 M1710.92 1384.72 Q1715.96 1387.63 1716.3 1393.14 Q1716.67 1398.65 1712.3 1406.23 Q1707.94 1413.79 1702.97 1416.24 Q1698.03 1418.68 1693 1415.77 Q1687.96 1412.87 1687.59 1407.36 Q1687.25 1401.84 1691.61 1394.29 Q1695.99 1386.71 1700.92 1384.27 Q1705.89 1381.82 1710.92 1384.72 Z" fill="#000000" fill-rule="nonzero" fill-opacity="1" /><path clip-path="url(#clip040)" d="M1714.15 1420.42 L1718.38 1422.87 L1715.44 1427.96 L1711.21 1425.52 L1714.15 1420.42 M1723.47 1404.29 L1727.7 1406.73 L1724.76 1411.82 L1720.53 1409.38 L1723.47 1404.29 Z" fill="#000000" fill-rule="nonzero" fill-opacity="1" /><path clip-path="url(#clip040)" d="M1749.03 1411 Q1745.9 1409.19 1742.53 1411.36 Q1739.2 1413.53 1735.63 1419.7 Q1732.08 1425.86 1731.86 1429.85 Q1731.67 1433.83 1734.8 1435.63 Q1737.95 1437.45 1741.28 1435.29 Q1744.65 1433.11 1748.2 1426.96 Q1751.77 1420.78 1751.95 1416.8 Q1752.17 1412.81 1749.03 1411 M1750.88 1407.79 Q1755.91 1410.69 1756.25 1416.21 Q1756.63 1421.72 1752.25 1429.3 Q1747.89 1436.85 1742.92 1439.3 Q1737.98 1441.75 1732.95 1438.84 Q1727.92 1435.94 1727.54 1430.43 Q1727.2 1424.91 1731.56 1417.35 Q1735.94 1409.78 1740.88 1407.33 Q1745.85 1404.88 1750.88 1407.79 Z" fill="#000000" fill-rule="nonzero" fill-opacity="1" /><path clip-path="url(#clip040)" d="M1775.15 1426.08 Q1772.02 1424.27 1768.65 1426.44 Q1765.32 1428.61 1761.75 1434.78 Q1758.2 1440.94 1757.98 1444.93 Q1757.8 1448.91 1760.92 1450.71 Q1764.07 1452.53 1767.4 1450.37 Q1770.77 1448.19 1774.32 1442.04 Q1777.89 1435.87 1778.08 1431.88 Q1778.29 1427.89 1775.15 1426.08 M1777 1422.87 Q1782.03 1425.77 1782.37 1431.29 Q1782.75 1436.8 1778.37 1444.38 Q1774.01 1451.94 1769.04 1454.39 Q1764.1 1456.83 1759.07 1453.92 Q1754.04 1451.02 1753.66 1445.51 Q1753.32 1439.99 1757.68 1432.43 Q1762.06 1424.86 1767 1422.41 Q1771.97 1419.96 1777 1422.87 Z" fill="#000000" fill-rule="nonzero" fill-opacity="1" /><path clip-path="url(#clip040)" d="M1856.09 1203.34 L1870.22 1211.5 L1868.25 1214.9 L1849.25 1203.93 L1851.22 1200.52 Q1854.9 1199.47 1861.18 1197.75 Q1867.5 1196.03 1869.19 1195.45 Q1872.4 1194.39 1874.03 1193.33 Q1875.69 1192.26 1876.53 1190.79 Q1877.91 1188.41 1877.1 1185.93 Q1876.3 1183.47 1873.61 1181.92 Q1871.71 1180.82 1869.2 1180.25 Q1866.71 1179.7 1863.53 1179.65 L1865.89 1175.56 Q1868.91 1175.99 1871.32 1176.72 Q1873.74 1177.44 1875.5 1178.46 Q1880.15 1181.15 1881.58 1185.07 Q1883 1188.99 1880.75 1192.88 Q1879.69 1194.73 1878.03 1195.98 Q1876.4 1197.23 1873.28 1198.43 Q1872.44 1198.72 1868.14 1199.95 Q1863.86 1201.17 1856.09 1203.34 Z" fill="#000000" fill-rule="nonzero" fill-opacity="1" /><path clip-path="url(#clip040)" d="M1901.15 1197.55 Q1898.03 1195.74 1894.66 1197.92 Q1891.32 1200.08 1887.76 1206.25 Q1884.21 1212.41 1883.99 1216.4 Q1883.8 1220.38 1886.93 1222.19 Q1890.08 1224 1893.41 1221.84 Q1896.78 1219.67 1900.33 1213.51 Q1903.89 1207.34 1904.08 1203.36 Q1904.3 1199.37 1901.15 1197.55 M1903 1194.34 Q1908.04 1197.25 1908.38 1202.76 Q1908.75 1208.27 1904.38 1215.85 Q1900.02 1223.41 1895.05 1225.86 Q1890.11 1228.3 1885.08 1225.39 Q1880.04 1222.49 1879.67 1216.98 Q1879.33 1211.46 1883.69 1203.9 Q1888.07 1196.33 1893 1193.89 Q1897.97 1191.44 1903 1194.34 Z" fill="#000000" fill-rule="nonzero" fill-opacity="1" /><path clip-path="url(#clip040)" d="M1908.33 1233.5 L1922.46 1241.66 L1920.49 1245.07 L1901.49 1234.09 L1903.46 1230.69 Q1907.14 1229.63 1913.42 1227.91 Q1919.74 1226.19 1921.43 1225.62 Q1924.64 1224.55 1926.27 1223.49 Q1927.93 1222.42 1928.78 1220.95 Q1930.15 1218.57 1929.34 1216.09 Q1928.54 1213.63 1925.85 1212.08 Q1923.95 1210.98 1921.44 1210.41 Q1918.96 1209.86 1915.78 1209.81 L1918.14 1205.72 Q1921.15 1206.15 1923.56 1206.88 Q1925.98 1207.6 1927.74 1208.62 Q1932.39 1211.31 1933.82 1215.23 Q1935.24 1219.15 1933 1223.04 Q1931.93 1224.89 1930.27 1226.15 Q1928.64 1227.4 1925.52 1228.59 Q1924.68 1228.88 1920.39 1230.12 Q1916.1 1231.33 1908.33 1233.5 Z" fill="#000000" fill-rule="nonzero" fill-opacity="1" /><path clip-path="url(#clip040)" d="M1950.58 1240.92 Q1953.13 1243.22 1953.62 1246.12 Q1954.13 1249.03 1952.46 1251.92 Q1949.9 1256.35 1945.45 1257.02 Q1941.01 1257.68 1935.39 1254.44 Q1933.51 1253.36 1931.72 1251.82 Q1929.95 1250.31 1928.25 1248.34 L1930.51 1244.43 Q1931.63 1246.39 1933.34 1248.05 Q1935.06 1249.71 1937.24 1250.97 Q1941.05 1253.17 1943.9 1252.81 Q1946.78 1252.46 1948.43 1249.6 Q1949.96 1246.95 1948.95 1244.39 Q1947.97 1241.82 1944.67 1239.91 L1941.18 1237.9 L1943.1 1234.57 L1946.75 1236.68 Q1949.74 1238.4 1952 1238.13 Q1954.28 1237.84 1955.58 1235.6 Q1956.91 1233.29 1955.97 1231.12 Q1955.06 1228.94 1952.02 1227.18 Q1950.35 1226.22 1948.24 1225.48 Q1946.13 1224.74 1943.4 1224.19 L1945.48 1220.58 Q1948.16 1221.27 1950.35 1222.1 Q1952.56 1222.95 1954.34 1223.98 Q1958.96 1226.64 1960.43 1230.3 Q1961.91 1233.94 1959.85 1237.5 Q1958.41 1239.99 1955.99 1240.89 Q1953.59 1241.77 1950.58 1240.92 Z" fill="#000000" fill-rule="nonzero" fill-opacity="1" /><path clip-path="url(#clip040)" d="M1960.17 1250.79 L1970.98 1257.03 L1969.08 1260.31 L1958.27 1254.08 L1960.17 1250.79 Z" fill="#000000" fill-rule="nonzero" fill-opacity="1" /><path clip-path="url(#clip040)" d="M1994.33 1251.34 Q1991.2 1249.54 1987.84 1251.71 Q1984.5 1253.88 1980.94 1260.05 Q1977.38 1266.2 1977.17 1270.19 Q1976.98 1274.18 1980.11 1275.98 Q1983.25 1277.8 1986.59 1275.63 Q1989.95 1273.46 1993.51 1267.31 Q1997.07 1261.13 1997.26 1257.15 Q1997.48 1253.16 1994.33 1251.34 M1996.18 1248.14 Q2001.21 1251.04 2001.56 1256.56 Q2001.93 1262.07 1997.56 1269.65 Q1993.19 1277.2 1988.22 1279.65 Q1983.29 1282.09 1978.25 1279.19 Q1973.22 1276.28 1972.85 1270.78 Q1972.5 1265.26 1976.87 1257.7 Q1981.24 1250.12 1986.18 1247.68 Q1991.15 1245.23 1996.18 1248.14 Z" fill="#000000" fill-rule="nonzero" fill-opacity="1" /><path clip-path="url(#clip040)" d="M1998.72 1285.69 L2005.33 1289.51 L2018.52 1266.67 L2010.49 1263.96 L2012.62 1260.27 L2020.61 1262.96 L2024.66 1265.3 L2009.34 1291.82 L2015.96 1295.64 L2013.99 1299.05 L1996.75 1289.09 L1998.72 1285.69 Z" fill="#000000" fill-rule="nonzero" fill-opacity="1" /><path clip-path="url(#clip040)" d="M2027.23 1289.5 L2038.03 1295.74 L2036.13 1299.03 L2025.33 1292.79 L2027.23 1289.5 Z" fill="#000000" fill-rule="nonzero" fill-opacity="1" /><path clip-path="url(#clip040)" d="M2061.39 1290.06 Q2058.26 1288.25 2054.89 1290.43 Q2051.56 1292.59 2047.99 1298.77 Q2044.44 1304.92 2044.22 1308.91 Q2044.03 1312.89 2047.16 1314.7 Q2050.31 1316.51 2053.64 1314.35 Q2057.01 1312.18 2060.56 1306.02 Q2064.13 1299.85 2064.32 1295.87 Q2064.53 1291.88 2061.39 1290.06 M2063.24 1286.85 Q2068.27 1289.76 2068.61 1295.27 Q2068.99 1300.78 2064.61 1308.36 Q2060.25 1315.92 2055.28 1318.37 Q2050.34 1320.81 2045.31 1317.9 Q2040.28 1315 2039.9 1309.49 Q2039.56 1303.97 2043.92 1296.42 Q2048.3 1288.84 2053.24 1286.4 Q2058.21 1283.95 2063.24 1286.85 Z" fill="#000000" fill-rule="nonzero" fill-opacity="1" /><path clip-path="url(#clip040)" d="M2065.78 1324.4 L2072.39 1328.22 L2085.57 1305.39 L2077.54 1302.68 L2079.67 1298.99 L2087.66 1301.68 L2091.71 1304.01 L2076.4 1330.54 L2083.02 1334.35 L2081.05 1337.76 L2063.81 1327.81 L2065.78 1324.4 Z" fill="#000000" fill-rule="nonzero" fill-opacity="1" /><path clip-path="url(#clip040)" d="M2102 1309.95 L2127.32 1324.57 L2125.35 1327.98 L2114.72 1321.84 L2099.41 1348.36 L2095.34 1346.01 L2110.65 1319.49 L2100.03 1313.36 L2102 1309.95 Z" fill="#000000" fill-rule="nonzero" fill-opacity="1" /><path clip-path="url(#clip040)" d="M2116.98 1353.96 L2123.59 1357.78 L2136.77 1334.95 L2128.74 1332.24 L2130.87 1328.55 L2138.86 1331.24 L2142.91 1333.57 L2127.6 1360.1 L2134.22 1363.91 L2132.25 1367.32 L2115.01 1357.37 L2116.98 1353.96 Z" fill="#000000" fill-rule="nonzero" fill-opacity="1" /><path clip-path="url(#clip040)" d="M2157.29 1362.83 Q2154.41 1361.17 2151.85 1361.75 Q2149.32 1362.34 2147.75 1365.05 Q2146.19 1367.76 2146.94 1370.25 Q2147.72 1372.75 2150.6 1374.42 Q2153.49 1376.09 2156.05 1375.5 Q2158.61 1374.9 2160.16 1372.21 Q2161.73 1369.51 2160.95 1367 Q2160.2 1364.51 2157.29 1362.83 M2154.24 1358.77 Q2152 1356.62 2151.57 1353.99 Q2151.16 1351.38 2152.64 1348.81 Q2154.71 1345.22 2158.46 1344.61 Q2162.23 1344 2166.68 1346.57 Q2171.15 1349.15 2172.49 1352.71 Q2173.83 1356.26 2171.76 1359.85 Q2170.28 1362.42 2167.79 1363.36 Q2165.31 1364.31 2162.36 1363.46 Q2164.89 1365.83 2165.37 1368.75 Q2165.87 1371.68 2164.21 1374.55 Q2161.7 1378.9 2157.69 1379.69 Q2153.7 1380.49 2148.75 1377.63 Q2143.8 1374.77 2142.48 1370.9 Q2141.17 1367.05 2143.68 1362.7 Q2145.34 1359.83 2148.13 1358.8 Q2150.92 1357.76 2154.24 1358.77 M2156.45 1351.52 Q2155.11 1353.84 2155.8 1355.98 Q2156.51 1358.13 2159.13 1359.64 Q2161.74 1361.15 2163.96 1360.69 Q2166.19 1360.24 2167.53 1357.92 Q2168.88 1355.59 2168.15 1353.43 Q2167.43 1351.29 2164.83 1349.78 Q2162.2 1348.27 2159.99 1348.72 Q2157.79 1349.19 2156.45 1351.52 Z" fill="#000000" fill-rule="nonzero" fill-opacity="1" /><path clip-path="url(#clip040)" d="M2169.91 1382.28 L2174.14 1384.72 L2171.2 1389.81 L2166.97 1387.37 L2169.91 1382.28 M2179.23 1366.14 L2183.46 1368.58 L2180.52 1373.67 L2176.29 1371.23 L2179.23 1366.14 Z" fill="#000000" fill-rule="nonzero" fill-opacity="1" /><path clip-path="url(#clip040)" d="M2204.78 1372.85 Q2201.65 1371.04 2198.29 1373.22 Q2194.95 1375.38 2191.39 1381.55 Q2187.84 1387.71 2187.62 1391.7 Q2187.43 1395.68 2190.56 1397.49 Q2193.7 1399.3 2197.04 1397.14 Q2200.4 1394.97 2203.96 1388.81 Q2207.52 1382.64 2207.71 1378.66 Q2207.93 1374.67 2204.78 1372.85 M2206.63 1369.64 Q2211.66 1372.55 2212.01 1378.06 Q2212.38 1383.57 2208.01 1391.15 Q2203.64 1398.71 2198.67 1401.16 Q2193.74 1403.6 2188.7 1400.69 Q2183.67 1397.79 2183.3 1392.28 Q2182.96 1386.76 2187.32 1379.2 Q2191.69 1371.63 2196.63 1369.19 Q2201.6 1366.74 2206.63 1369.64 Z" fill="#000000" fill-rule="nonzero" fill-opacity="1" /><path clip-path="url(#clip040)" d="M2230.9 1387.93 Q2227.77 1386.12 2224.41 1388.3 Q2221.07 1390.46 2217.51 1396.64 Q2213.96 1402.79 2213.74 1406.78 Q2213.55 1410.76 2216.68 1412.57 Q2219.83 1414.38 2223.16 1412.22 Q2226.53 1410.05 2230.08 1403.89 Q2233.64 1397.72 2233.83 1393.74 Q2234.05 1389.75 2230.9 1387.93 M2232.75 1384.72 Q2237.79 1387.63 2238.13 1393.14 Q2238.5 1398.65 2234.13 1406.23 Q2229.76 1413.79 2224.8 1416.24 Q2219.86 1418.68 2214.83 1415.77 Q2209.79 1412.87 2209.42 1407.36 Q2209.08 1401.84 2213.44 1394.29 Q2217.82 1386.71 2222.75 1384.27 Q2227.72 1381.82 2232.75 1384.72 Z" fill="#000000" fill-rule="nonzero" fill-opacity="1" /><path clip-path="url(#clip040)" d="M2235.98 1420.42 L2240.21 1422.87 L2237.27 1427.96 L2233.04 1425.52 L2235.98 1420.42 M2245.3 1404.29 L2249.53 1406.73 L2246.59 1411.82 L2242.36 1409.38 L2245.3 1404.29 Z" fill="#000000" fill-rule="nonzero" fill-opacity="1" /><path clip-path="url(#clip040)" d="M2270.86 1411 Q2267.73 1409.19 2264.36 1411.36 Q2261.03 1413.53 2257.46 1419.7 Q2253.91 1425.86 2253.69 1429.85 Q2253.5 1433.83 2256.63 1435.63 Q2259.78 1437.45 2263.11 1435.29 Q2266.48 1433.11 2270.03 1426.96 Q2273.6 1420.78 2273.78 1416.8 Q2274 1412.81 2270.86 1411 M2272.71 1407.79 Q2277.74 1410.69 2278.08 1416.21 Q2278.46 1421.72 2274.08 1429.3 Q2269.72 1436.85 2264.75 1439.3 Q2259.81 1441.75 2254.78 1438.84 Q2249.75 1435.94 2249.37 1430.43 Q2249.03 1424.91 2253.39 1417.35 Q2257.77 1409.78 2262.71 1407.33 Q2267.68 1404.88 2272.71 1407.79 Z" fill="#000000" fill-rule="nonzero" fill-opacity="1" /><path clip-path="url(#clip040)" d="M2296.98 1426.08 Q2293.85 1424.27 2290.48 1426.44 Q2287.15 1428.61 2283.58 1434.78 Q2280.03 1440.94 2279.81 1444.93 Q2279.62 1448.91 2282.75 1450.71 Q2285.9 1452.53 2289.23 1450.37 Q2292.6 1448.19 2296.15 1442.04 Q2299.72 1435.87 2299.9 1431.88 Q2300.12 1427.89 2296.98 1426.08 M2298.83 1422.87 Q2303.86 1425.77 2304.2 1431.29 Q2304.58 1436.8 2300.2 1444.38 Q2295.84 1451.94 2290.87 1454.39 Q2285.93 1456.83 2280.9 1453.92 Q2275.87 1451.02 2275.49 1445.51 Q2275.15 1439.99 2279.51 1432.43 Q2283.89 1424.86 2288.83 1422.41 Q2293.8 1419.96 2298.83 1422.87 Z" fill="#000000" fill-rule="nonzero" fill-opacity="1" /><path clip-path="url(#clip040)" d="M839.287 1493.1 L879.486 1493.1 L879.486 1498.51 L862.617 1498.51 L862.617 1540.62 L856.156 1540.62 L856.156 1498.51 L839.287 1498.51 L839.287 1493.1 Z" fill="#000000" fill-rule="nonzero" fill-opacity="1" /><path clip-path="url(#clip040)" d="M883.433 1504.97 L889.289 1504.97 L889.289 1540.62 L883.433 1540.62 L883.433 1504.97 M883.433 1491.09 L889.289 1491.09 L889.289 1498.51 L883.433 1498.51 L883.433 1491.09 Z" fill="#000000" fill-rule="nonzero" fill-opacity="1" /><path clip-path="url(#clip040)" d="M929.298 1511.81 Q931.494 1507.87 934.549 1505.99 Q937.605 1504.11 941.743 1504.11 Q947.313 1504.11 950.336 1508.03 Q953.36 1511.91 953.36 1519.1 L953.36 1540.62 L947.472 1540.62 L947.472 1519.29 Q947.472 1514.17 945.658 1511.69 Q943.843 1509.2 940.119 1509.2 Q935.568 1509.2 932.926 1512.23 Q930.284 1515.25 930.284 1520.47 L930.284 1540.62 L924.396 1540.62 L924.396 1519.29 Q924.396 1514.14 922.582 1511.69 Q920.768 1509.2 916.98 1509.2 Q912.492 1509.2 909.85 1512.26 Q907.209 1515.28 907.209 1520.47 L907.209 1540.62 L901.32 1540.62 L901.32 1504.97 L907.209 1504.97 L907.209 1510.51 Q909.214 1507.23 912.015 1505.67 Q914.816 1504.11 918.667 1504.11 Q922.55 1504.11 925.255 1506.09 Q927.993 1508.06 929.298 1511.81 Z" fill="#000000" fill-rule="nonzero" fill-opacity="1" /><path clip-path="url(#clip040)" d="M995.533 1521.33 L995.533 1524.2 L968.606 1524.2 Q968.988 1530.24 972.234 1533.43 Q975.513 1536.58 981.337 1536.58 Q984.711 1536.58 987.862 1535.75 Q991.045 1534.92 994.164 1533.27 L994.164 1538.81 Q991.013 1540.14 987.703 1540.84 Q984.393 1541.54 980.987 1541.54 Q972.457 1541.54 967.46 1536.58 Q962.495 1531.61 962.495 1523.15 Q962.495 1514.39 967.205 1509.27 Q971.948 1504.11 979.969 1504.11 Q987.162 1504.11 991.331 1508.76 Q995.533 1513.37 995.533 1521.33 M989.676 1519.61 Q989.613 1514.81 986.971 1511.94 Q984.361 1509.08 980.032 1509.08 Q975.131 1509.08 972.171 1511.85 Q969.242 1514.62 968.797 1519.64 L989.676 1519.61 Z" fill="#000000" fill-rule="nonzero" fill-opacity="1" /><path clip-path="url(#clip040)" d="M1023.32 1504.97 L1051.14 1504.97 L1051.14 1510.32 L1029.11 1535.94 L1051.14 1535.94 L1051.14 1540.62 L1022.52 1540.62 L1022.52 1535.27 L1044.55 1509.65 L1023.32 1509.65 L1023.32 1504.97 Z" fill="#000000" fill-rule="nonzero" fill-opacity="1" /><path clip-path="url(#clip040)" d="M1073.89 1509.08 Q1069.18 1509.08 1066.45 1512.77 Q1063.71 1516.43 1063.71 1522.83 Q1063.71 1529.22 1066.41 1532.92 Q1069.15 1536.58 1073.89 1536.58 Q1078.57 1536.58 1081.31 1532.89 Q1084.05 1529.19 1084.05 1522.83 Q1084.05 1516.49 1081.31 1512.8 Q1078.57 1509.08 1073.89 1509.08 M1073.89 1504.11 Q1081.53 1504.11 1085.89 1509.08 Q1090.25 1514.04 1090.25 1522.83 Q1090.25 1531.58 1085.89 1536.58 Q1081.53 1541.54 1073.89 1541.54 Q1066.22 1541.54 1061.86 1536.58 Q1057.53 1531.58 1057.53 1522.83 Q1057.53 1514.04 1061.86 1509.08 Q1066.22 1504.11 1073.89 1504.11 Z" fill="#000000" fill-rule="nonzero" fill-opacity="1" /><path clip-path="url(#clip040)" d="M1129.59 1519.1 L1129.59 1540.62 L1123.74 1540.62 L1123.74 1519.29 Q1123.74 1514.23 1121.76 1511.72 Q1119.79 1509.2 1115.84 1509.2 Q1111.1 1509.2 1108.36 1512.23 Q1105.63 1515.25 1105.63 1520.47 L1105.63 1540.62 L1099.74 1540.62 L1099.74 1504.97 L1105.63 1504.97 L1105.63 1510.51 Q1107.73 1507.29 1110.56 1505.7 Q1113.43 1504.11 1117.15 1504.11 Q1123.29 1504.11 1126.44 1507.93 Q1129.59 1511.72 1129.59 1519.1 Z" fill="#000000" fill-rule="nonzero" fill-opacity="1" /><path clip-path="url(#clip040)" d="M1171.77 1521.33 L1171.77 1524.2 L1144.84 1524.2 Q1145.22 1530.24 1148.47 1533.43 Q1151.75 1536.58 1157.57 1536.58 Q1160.95 1536.58 1164.1 1535.75 Q1167.28 1534.92 1170.4 1533.27 L1170.4 1538.81 Q1167.25 1540.14 1163.94 1540.84 Q1160.63 1541.54 1157.22 1541.54 Q1148.69 1541.54 1143.69 1536.58 Q1138.73 1531.61 1138.73 1523.15 Q1138.73 1514.39 1143.44 1509.27 Q1148.18 1504.11 1156.2 1504.11 Q1163.4 1504.11 1167.57 1508.76 Q1171.77 1513.37 1171.77 1521.33 M1165.91 1519.61 Q1165.85 1514.81 1163.21 1511.94 Q1160.6 1509.08 1156.27 1509.08 Q1151.37 1509.08 1148.41 1511.85 Q1145.48 1514.62 1145.03 1519.64 L1165.91 1519.61 Z" fill="#000000" fill-rule="nonzero" fill-opacity="1" /><path clip-path="url(#clip040)" d="M1182.88 1532.53 L1189.59 1532.53 L1189.59 1540.62 L1182.88 1540.62 L1182.88 1532.53 M1182.88 1506.91 L1189.59 1506.91 L1189.59 1515 L1182.88 1515 L1182.88 1506.91 Z" fill="#000000" fill-rule="nonzero" fill-opacity="1" /><path clip-path="url(#clip040)" d="M1240.2 1499.43 L1231.48 1523.08 L1248.95 1523.08 L1240.2 1499.43 M1236.57 1493.1 L1243.86 1493.1 L1261.97 1540.62 L1255.29 1540.62 L1250.96 1528.43 L1229.54 1528.43 L1225.21 1540.62 L1218.43 1540.62 L1236.57 1493.1 Z" fill="#000000" fill-rule="nonzero" fill-opacity="1" /><path clip-path="url(#clip040)" d="M1296.41 1511.81 Q1298.6 1507.87 1301.66 1505.99 Q1304.72 1504.11 1308.85 1504.11 Q1314.42 1504.11 1317.45 1508.03 Q1320.47 1511.91 1320.47 1519.1 L1320.47 1540.62 L1314.58 1540.62 L1314.58 1519.29 Q1314.58 1514.17 1312.77 1511.69 Q1310.95 1509.2 1307.23 1509.2 Q1302.68 1509.2 1300.04 1512.23 Q1297.39 1515.25 1297.39 1520.47 L1297.39 1540.62 L1291.51 1540.62 L1291.51 1519.29 Q1291.51 1514.14 1289.69 1511.69 Q1287.88 1509.2 1284.09 1509.2 Q1279.6 1509.2 1276.96 1512.26 Q1274.32 1515.28 1274.32 1520.47 L1274.32 1540.62 L1268.43 1540.62 L1268.43 1504.97 L1274.32 1504.97 L1274.32 1510.51 Q1276.32 1507.23 1279.13 1505.67 Q1281.93 1504.11 1285.78 1504.11 Q1289.66 1504.11 1292.37 1506.09 Q1295.1 1508.06 1296.41 1511.81 Z" fill="#000000" fill-rule="nonzero" fill-opacity="1" /><path clip-path="url(#clip040)" d="M1362.64 1521.33 L1362.64 1524.2 L1335.72 1524.2 Q1336.1 1530.24 1339.34 1533.43 Q1342.62 1536.58 1348.45 1536.58 Q1351.82 1536.58 1354.97 1535.75 Q1358.16 1534.92 1361.27 1533.27 L1361.27 1538.81 Q1358.12 1540.14 1354.81 1540.84 Q1351.5 1541.54 1348.1 1541.54 Q1339.57 1541.54 1334.57 1536.58 Q1329.61 1531.61 1329.61 1523.15 Q1329.61 1514.39 1334.32 1509.27 Q1339.06 1504.11 1347.08 1504.11 Q1354.27 1504.11 1358.44 1508.76 Q1362.64 1513.37 1362.64 1521.33 M1356.79 1519.61 Q1356.72 1514.81 1354.08 1511.94 Q1351.47 1509.08 1347.14 1509.08 Q1342.24 1509.08 1339.28 1511.85 Q1336.35 1514.62 1335.91 1519.64 L1356.79 1519.61 Z" fill="#000000" fill-rule="nonzero" fill-opacity="1" /><path clip-path="url(#clip040)" d="M1392.91 1510.45 Q1391.93 1509.87 1390.75 1509.62 Q1389.6 1509.33 1388.2 1509.33 Q1383.24 1509.33 1380.56 1512.58 Q1377.92 1515.79 1377.92 1521.84 L1377.92 1540.62 L1372.03 1540.62 L1372.03 1504.97 L1377.92 1504.97 L1377.92 1510.51 Q1379.77 1507.26 1382.73 1505.7 Q1385.69 1504.11 1389.92 1504.11 Q1390.52 1504.11 1391.26 1504.21 Q1391.99 1504.27 1392.88 1504.43 L1392.91 1510.45 Z" fill="#000000" fill-rule="nonzero" fill-opacity="1" /><path clip-path="url(#clip040)" d="M1399.05 1504.97 L1404.91 1504.97 L1404.91 1540.62 L1399.05 1540.62 L1399.05 1504.97 M1399.05 1491.09 L1404.91 1491.09 L1404.91 1498.51 L1399.05 1498.51 L1399.05 1491.09 Z" fill="#000000" fill-rule="nonzero" fill-opacity="1" /><path clip-path="url(#clip040)" d="M1442.82 1506.34 L1442.82 1511.81 Q1440.34 1510.45 1437.82 1509.78 Q1435.34 1509.08 1432.79 1509.08 Q1427.1 1509.08 1423.94 1512.71 Q1420.79 1516.3 1420.79 1522.83 Q1420.79 1529.35 1423.94 1532.98 Q1427.1 1536.58 1432.79 1536.58 Q1435.34 1536.58 1437.82 1535.91 Q1440.34 1535.21 1442.82 1533.84 L1442.82 1539.25 Q1440.37 1540.4 1437.73 1540.97 Q1435.12 1541.54 1432.16 1541.54 Q1424.1 1541.54 1419.36 1536.48 Q1414.62 1531.42 1414.62 1522.83 Q1414.62 1514.11 1419.39 1509.11 Q1424.2 1504.11 1432.54 1504.11 Q1435.24 1504.11 1437.82 1504.68 Q1440.4 1505.23 1442.82 1506.34 Z" fill="#000000" fill-rule="nonzero" fill-opacity="1" /><path clip-path="url(#clip040)" d="M1469.21 1522.7 Q1462.11 1522.7 1459.37 1524.32 Q1456.63 1525.95 1456.63 1529.86 Q1456.63 1532.98 1458.67 1534.83 Q1460.74 1536.64 1464.27 1536.64 Q1469.14 1536.64 1472.07 1533.2 Q1475.03 1529.73 1475.03 1524 L1475.03 1522.7 L1469.21 1522.7 M1480.89 1520.28 L1480.89 1540.62 L1475.03 1540.62 L1475.03 1535.21 Q1473.02 1538.46 1470.03 1540.01 Q1467.04 1541.54 1462.71 1541.54 Q1457.24 1541.54 1453.99 1538.49 Q1450.78 1535.4 1450.78 1530.24 Q1450.78 1524.23 1454.79 1521.17 Q1458.83 1518.12 1466.82 1518.12 L1475.03 1518.12 L1475.03 1517.54 Q1475.03 1513.5 1472.36 1511.31 Q1469.71 1509.08 1464.91 1509.08 Q1461.85 1509.08 1458.96 1509.81 Q1456.06 1510.54 1453.39 1512.01 L1453.39 1506.59 Q1456.6 1505.35 1459.62 1504.75 Q1462.65 1504.11 1465.51 1504.11 Q1473.25 1504.11 1477.07 1508.12 Q1480.89 1512.13 1480.89 1520.28 Z" fill="#000000" fill-rule="nonzero" fill-opacity="1" /><path clip-path="url(#clip040)" d="M1503.36 1493.1 L1508.77 1493.1 L1492.22 1546.67 L1486.81 1546.67 L1503.36 1493.1 Z" fill="#000000" fill-rule="nonzero" fill-opacity="1" /><path clip-path="url(#clip040)" d="M1521.59 1498.38 L1521.59 1535.34 L1529.36 1535.34 Q1539.2 1535.34 1543.75 1530.88 Q1548.33 1526.42 1548.33 1516.81 Q1548.33 1507.26 1543.75 1502.84 Q1539.2 1498.38 1529.36 1498.38 L1521.59 1498.38 M1515.17 1493.1 L1528.37 1493.1 Q1542.19 1493.1 1548.65 1498.86 Q1555.11 1504.59 1555.11 1516.81 Q1555.11 1529.1 1548.62 1534.86 Q1542.12 1540.62 1528.37 1540.62 L1515.17 1540.62 L1515.17 1493.1 Z" fill="#000000" fill-rule="nonzero" fill-opacity="1" /><path clip-path="url(#clip040)" d="M1595.6 1521.33 L1595.6 1524.2 L1568.67 1524.2 Q1569.05 1530.24 1572.3 1533.43 Q1575.58 1536.58 1581.4 1536.58 Q1584.77 1536.58 1587.93 1535.75 Q1591.11 1534.92 1594.23 1533.27 L1594.23 1538.81 Q1591.08 1540.14 1587.77 1540.84 Q1584.46 1541.54 1581.05 1541.54 Q1572.52 1541.54 1567.52 1536.58 Q1562.56 1531.61 1562.56 1523.15 Q1562.56 1514.39 1567.27 1509.27 Q1572.01 1504.11 1580.03 1504.11 Q1587.23 1504.11 1591.39 1508.76 Q1595.6 1513.37 1595.6 1521.33 M1589.74 1519.61 Q1589.68 1514.81 1587.03 1511.94 Q1584.42 1509.08 1580.1 1509.08 Q1575.19 1509.08 1572.23 1511.85 Q1569.31 1514.62 1568.86 1519.64 L1589.74 1519.61 Z" fill="#000000" fill-rule="nonzero" fill-opacity="1" /><path clip-path="url(#clip040)" d="M1634.84 1519.1 L1634.84 1540.62 L1628.98 1540.62 L1628.98 1519.29 Q1628.98 1514.23 1627.01 1511.72 Q1625.04 1509.2 1621.09 1509.2 Q1616.35 1509.2 1613.61 1512.23 Q1610.87 1515.25 1610.87 1520.47 L1610.87 1540.62 L1604.99 1540.62 L1604.99 1504.97 L1610.87 1504.97 L1610.87 1510.51 Q1612.97 1507.29 1615.81 1505.7 Q1618.67 1504.11 1622.4 1504.11 Q1628.54 1504.11 1631.69 1507.93 Q1634.84 1511.72 1634.84 1519.1 Z" fill="#000000" fill-rule="nonzero" fill-opacity="1" /><path clip-path="url(#clip040)" d="M1642.32 1504.97 L1648.53 1504.97 L1659.67 1534.89 L1670.81 1504.97 L1677.01 1504.97 L1663.65 1540.62 L1655.69 1540.62 L1642.32 1504.97 Z" fill="#000000" fill-rule="nonzero" fill-opacity="1" /><path clip-path="url(#clip040)" d="M1715.59 1521.33 L1715.59 1524.2 L1688.66 1524.2 Q1689.04 1530.24 1692.29 1533.43 Q1695.57 1536.58 1701.39 1536.58 Q1704.77 1536.58 1707.92 1535.75 Q1711.1 1534.92 1714.22 1533.27 L1714.22 1538.81 Q1711.07 1540.14 1707.76 1540.84 Q1704.45 1541.54 1701.04 1541.54 Q1692.51 1541.54 1687.52 1536.58 Q1682.55 1531.61 1682.55 1523.15 Q1682.55 1514.39 1687.26 1509.27 Q1692 1504.11 1700.03 1504.11 Q1707.22 1504.11 1711.39 1508.76 Q1715.59 1513.37 1715.59 1521.33 M1709.73 1519.61 Q1709.67 1514.81 1707.03 1511.94 Q1704.42 1509.08 1700.09 1509.08 Q1695.19 1509.08 1692.23 1511.85 Q1689.3 1514.62 1688.85 1519.64 L1709.73 1519.61 Z" fill="#000000" fill-rule="nonzero" fill-opacity="1" /><path clip-path="url(#clip040)" d="M1745.86 1510.45 Q1744.87 1509.87 1743.69 1509.62 Q1742.55 1509.33 1741.15 1509.33 Q1736.18 1509.33 1733.51 1512.58 Q1730.87 1515.79 1730.87 1521.84 L1730.87 1540.62 L1724.98 1540.62 L1724.98 1504.97 L1730.87 1504.97 L1730.87 1510.51 Q1732.71 1507.26 1735.67 1505.7 Q1738.63 1504.11 1742.87 1504.11 Q1743.47 1504.11 1744.2 1504.21 Q1744.94 1504.27 1745.83 1504.43 L1745.86 1510.45 Z" fill="#000000" fill-rule="nonzero" fill-opacity="1" /><polyline clip-path="url(#clip040)" style="stroke:#000000; stroke-linecap:round; stroke-linejoin:round; stroke-width:4; stroke-opacity:1; fill:none" points="232.389,1147.32 232.389,47.2441 "/>
<polyline clip-path="url(#clip040)" style="stroke:#000000; stroke-linecap:round; stroke-linejoin:round; stroke-width:4; stroke-opacity:1; fill:none" points="232.389,1115.4 251.287,1115.4 "/>
<polyline clip-path="url(#clip040)" style="stroke:#000000; stroke-linecap:round; stroke-linejoin:round; stroke-width:4; stroke-opacity:1; fill:none" points="232.389,854.175 251.287,854.175 "/>
<polyline clip-path="url(#clip040)" style="stroke:#000000; stroke-linecap:round; stroke-linejoin:round; stroke-width:4; stroke-opacity:1; fill:none" points="232.389,592.948 251.287,592.948 "/>
<polyline clip-path="url(#clip040)" style="stroke:#000000; stroke-linecap:round; stroke-linejoin:round; stroke-width:4; stroke-opacity:1; fill:none" points="232.389,331.721 251.287,331.721 "/>
<polyline clip-path="url(#clip040)" style="stroke:#000000; stroke-linecap:round; stroke-linejoin:round; stroke-width:4; stroke-opacity:1; fill:none" points="232.389,70.4946 251.287,70.4946 "/>
<path clip-path="url(#clip040)" d="M184.445 1101.2 Q180.834 1101.2 179.005 1104.77 Q177.2 1108.31 177.2 1115.44 Q177.2 1122.54 179.005 1126.11 Q180.834 1129.65 184.445 1129.65 Q188.079 1129.65 189.885 1126.11 Q191.713 1122.54 191.713 1115.44 Q191.713 1108.31 189.885 1104.77 Q188.079 1101.2 184.445 1101.2 M184.445 1097.5 Q190.255 1097.5 193.311 1102.1 Q196.389 1106.69 196.389 1115.44 Q196.389 1124.16 193.311 1128.77 Q190.255 1133.35 184.445 1133.35 Q178.635 1133.35 175.556 1128.77 Q172.501 1124.16 172.501 1115.44 Q172.501 1106.69 175.556 1102.1 Q178.635 1097.5 184.445 1097.5 Z" fill="#000000" fill-rule="nonzero" fill-opacity="1" /><path clip-path="url(#clip040)" d="M149.306 867.52 L165.626 867.52 L165.626 871.455 L143.681 871.455 L143.681 867.52 Q146.343 864.765 150.927 860.136 Q155.533 855.483 156.714 854.141 Q158.959 851.617 159.839 849.881 Q160.741 848.122 160.741 846.432 Q160.741 843.678 158.797 841.942 Q156.876 840.205 153.774 840.205 Q151.575 840.205 149.121 840.969 Q146.691 841.733 143.913 843.284 L143.913 838.562 Q146.737 837.428 149.191 836.849 Q151.644 836.27 153.681 836.27 Q159.052 836.27 162.246 838.955 Q165.44 841.641 165.44 846.131 Q165.44 848.261 164.63 850.182 Q163.843 852.08 161.737 854.673 Q161.158 855.344 158.056 858.562 Q154.954 861.756 149.306 867.52 Z" fill="#000000" fill-rule="nonzero" fill-opacity="1" /><path clip-path="url(#clip040)" d="M175.487 836.895 L193.843 836.895 L193.843 840.83 L179.769 840.83 L179.769 849.303 Q180.788 848.955 181.806 848.793 Q182.825 848.608 183.843 848.608 Q189.63 848.608 193.01 851.779 Q196.389 854.951 196.389 860.367 Q196.389 865.946 192.917 869.048 Q189.445 872.127 183.126 872.127 Q180.95 872.127 178.681 871.756 Q176.436 871.386 174.028 870.645 L174.028 865.946 Q176.112 867.08 178.334 867.636 Q180.556 868.191 183.033 868.191 Q187.038 868.191 189.375 866.085 Q191.713 863.978 191.713 860.367 Q191.713 856.756 189.375 854.65 Q187.038 852.543 183.033 852.543 Q181.158 852.543 179.283 852.96 Q177.431 853.377 175.487 854.256 L175.487 836.895 Z" fill="#000000" fill-rule="nonzero" fill-opacity="1" /><path clip-path="url(#clip040)" d="M144.329 575.668 L162.686 575.668 L162.686 579.604 L148.612 579.604 L148.612 588.076 Q149.63 587.728 150.649 587.566 Q151.667 587.381 152.686 587.381 Q158.473 587.381 161.852 590.553 Q165.232 593.724 165.232 599.14 Q165.232 604.719 161.76 607.821 Q158.288 610.9 151.968 610.9 Q149.792 610.9 147.524 610.529 Q145.279 610.159 142.871 609.418 L142.871 604.719 Q144.954 605.853 147.177 606.409 Q149.399 606.964 151.876 606.964 Q155.88 606.964 158.218 604.858 Q160.556 602.752 160.556 599.14 Q160.556 595.529 158.218 593.423 Q155.88 591.316 151.876 591.316 Q150.001 591.316 148.126 591.733 Q146.274 592.15 144.329 593.029 L144.329 575.668 Z" fill="#000000" fill-rule="nonzero" fill-opacity="1" /><path clip-path="url(#clip040)" d="M184.445 578.747 Q180.834 578.747 179.005 582.312 Q177.2 585.853 177.2 592.983 Q177.2 600.09 179.005 603.654 Q180.834 607.196 184.445 607.196 Q188.079 607.196 189.885 603.654 Q191.713 600.09 191.713 592.983 Q191.713 585.853 189.885 582.312 Q188.079 578.747 184.445 578.747 M184.445 575.043 Q190.255 575.043 193.311 579.65 Q196.389 584.233 196.389 592.983 Q196.389 601.71 193.311 606.316 Q190.255 610.9 184.445 610.9 Q178.635 610.9 175.556 606.316 Q172.501 601.71 172.501 592.983 Q172.501 584.233 175.556 579.65 Q178.635 575.043 184.445 575.043 Z" fill="#000000" fill-rule="nonzero" fill-opacity="1" /><path clip-path="url(#clip040)" d="M144.098 314.441 L166.32 314.441 L166.32 316.432 L153.774 349.001 L148.89 349.001 L160.695 318.377 L144.098 318.377 L144.098 314.441 Z" fill="#000000" fill-rule="nonzero" fill-opacity="1" /><path clip-path="url(#clip040)" d="M175.487 314.441 L193.843 314.441 L193.843 318.377 L179.769 318.377 L179.769 326.849 Q180.788 326.502 181.806 326.34 Q182.825 326.154 183.843 326.154 Q189.63 326.154 193.01 329.326 Q196.389 332.497 196.389 337.914 Q196.389 343.492 192.917 346.594 Q189.445 349.673 183.126 349.673 Q180.95 349.673 178.681 349.302 Q176.436 348.932 174.028 348.191 L174.028 343.492 Q176.112 344.626 178.334 345.182 Q180.556 345.738 183.033 345.738 Q187.038 345.738 189.375 343.631 Q191.713 341.525 191.713 337.914 Q191.713 334.302 189.375 332.196 Q187.038 330.09 183.033 330.09 Q181.158 330.09 179.283 330.506 Q177.431 330.923 175.487 331.802 L175.487 314.441 Z" fill="#000000" fill-rule="nonzero" fill-opacity="1" /><path clip-path="url(#clip040)" d="M114.931 83.8394 L122.57 83.8394 L122.57 57.4738 L114.26 59.1404 L114.26 54.8812 L122.524 53.2146 L127.2 53.2146 L127.2 83.8394 L134.839 83.8394 L134.839 87.7746 L114.931 87.7746 L114.931 83.8394 Z" fill="#000000" fill-rule="nonzero" fill-opacity="1" /><path clip-path="url(#clip040)" d="M154.283 56.2932 Q150.672 56.2932 148.843 59.858 Q147.038 63.3997 147.038 70.5293 Q147.038 77.6357 148.843 81.2005 Q150.672 84.7422 154.283 84.7422 Q157.917 84.7422 159.723 81.2005 Q161.552 77.6357 161.552 70.5293 Q161.552 63.3997 159.723 59.858 Q157.917 56.2932 154.283 56.2932 M154.283 52.5896 Q160.093 52.5896 163.149 57.196 Q166.227 61.7793 166.227 70.5293 Q166.227 79.2561 163.149 83.8625 Q160.093 88.4458 154.283 88.4458 Q148.473 88.4458 145.394 83.8625 Q142.339 79.2561 142.339 70.5293 Q142.339 61.7793 145.394 57.196 Q148.473 52.5896 154.283 52.5896 Z" fill="#000000" fill-rule="nonzero" fill-opacity="1" /><path clip-path="url(#clip040)" d="M184.445 56.2932 Q180.834 56.2932 179.005 59.858 Q177.2 63.3997 177.2 70.5293 Q177.2 77.6357 179.005 81.2005 Q180.834 84.7422 184.445 84.7422 Q188.079 84.7422 189.885 81.2005 Q191.713 77.6357 191.713 70.5293 Q191.713 63.3997 189.885 59.858 Q188.079 56.2932 184.445 56.2932 M184.445 52.5896 Q190.255 52.5896 193.311 57.196 Q196.389 61.7793 196.389 70.5293 Q196.389 79.2561 193.311 83.8625 Q190.255 88.4458 184.445 88.4458 Q178.635 88.4458 175.556 83.8625 Q172.501 79.2561 172.501 70.5293 Q172.501 61.7793 175.556 57.196 Q178.635 52.5896 184.445 52.5896 Z" fill="#000000" fill-rule="nonzero" fill-opacity="1" /><path clip-path="url(#clip040)" d="M21.7677 751.412 L39.6235 751.412 L39.6235 743.327 Q39.6235 738.839 37.3 736.389 Q34.9765 733.938 30.6797 733.938 Q26.4147 733.938 24.0912 736.389 Q21.7677 738.839 21.7677 743.327 L21.7677 751.412 M16.4842 757.841 L16.4842 743.327 Q16.4842 735.338 20.1126 731.264 Q23.7092 727.158 30.6797 727.158 Q37.7138 727.158 41.3104 731.264 Q44.907 735.338 44.907 743.327 L44.907 751.412 L64.0042 751.412 L64.0042 757.841 L16.4842 757.841 Z" fill="#000000" fill-rule="nonzero" fill-opacity="1" /><path clip-path="url(#clip040)" d="M32.4621 707.297 Q32.4621 712.008 36.1542 714.745 Q39.8145 717.483 46.212 717.483 Q52.6095 717.483 56.3017 714.777 Q59.9619 712.04 59.9619 707.297 Q59.9619 702.619 56.2698 699.881 Q52.5777 697.144 46.212 697.144 Q39.8781 697.144 36.186 699.881 Q32.4621 702.619 32.4621 707.297 M27.4968 707.297 Q27.4968 699.659 32.4621 695.298 Q37.4273 690.938 46.212 690.938 Q54.9649 690.938 59.9619 695.298 Q64.9272 699.659 64.9272 707.297 Q64.9272 714.968 59.9619 719.329 Q54.9649 723.657 46.212 723.657 Q37.4273 723.657 32.4621 719.329 Q27.4968 714.968 27.4968 707.297 Z" fill="#000000" fill-rule="nonzero" fill-opacity="1" /><path clip-path="url(#clip040)" d="M28.3562 684.635 L28.3562 678.779 L56.1743 671.458 L28.3562 664.17 L28.3562 657.263 L56.1743 649.942 L28.3562 642.654 L28.3562 636.797 L64.0042 646.123 L64.0042 653.03 L34.7856 660.7 L64.0042 668.403 L64.0042 675.31 L28.3562 684.635 Z" fill="#000000" fill-rule="nonzero" fill-opacity="1" /><path clip-path="url(#clip040)" d="M44.7161 597.425 L47.5806 597.425 L47.5806 624.352 Q53.6281 623.97 56.8109 620.724 Q59.9619 617.445 59.9619 611.621 Q59.9619 608.247 59.1344 605.096 Q58.3069 601.913 56.6518 598.794 L62.1899 598.794 Q63.5267 601.945 64.227 605.255 Q64.9272 608.565 64.9272 611.971 Q64.9272 620.501 59.9619 625.498 Q54.9967 630.463 46.5303 630.463 Q37.7774 630.463 32.6531 625.753 Q27.4968 621.01 27.4968 612.989 Q27.4968 605.796 32.1438 601.627 Q36.7589 597.425 44.7161 597.425 M42.9973 603.282 Q38.1912 603.345 35.3266 605.987 Q32.4621 608.597 32.4621 612.926 Q32.4621 617.827 35.2312 620.787 Q38.0002 623.716 43.0292 624.161 L42.9973 603.282 Z" fill="#000000" fill-rule="nonzero" fill-opacity="1" /><path clip-path="url(#clip040)" d="M33.8307 567.156 Q33.2578 568.143 33.0032 569.321 Q32.7167 570.467 32.7167 571.867 Q32.7167 576.832 35.9632 579.506 Q39.1779 582.148 45.2253 582.148 L64.0042 582.148 L64.0042 588.036 L28.3562 588.036 L28.3562 582.148 L33.8944 582.148 Q30.6479 580.302 29.0883 577.342 Q27.4968 574.381 27.4968 570.148 Q27.4968 569.544 27.5923 568.811 Q27.656 568.079 27.8151 567.188 L33.8307 567.156 Z" fill="#000000" fill-rule="nonzero" fill-opacity="1" /><path clip-path="url(#clip040)" d="M14.5426 526.225 Q21.8632 530.49 29.0246 532.559 Q36.186 534.628 43.5384 534.628 Q50.8908 534.628 58.1159 532.559 Q65.3091 530.458 72.5979 526.225 L72.5979 531.317 Q65.1182 536.092 57.8931 538.479 Q50.668 540.834 43.5384 540.834 Q36.4406 540.834 29.2474 538.479 Q22.0542 536.124 14.5426 531.317 L14.5426 526.225 Z" fill="#000000" fill-rule="nonzero" fill-opacity="1" /><path clip-path="url(#clip040)" d="M16.4842 518.841 L16.4842 512.348 L56.6518 502.353 L16.4842 492.391 L16.4842 485.166 L56.6518 475.172 L16.4842 465.21 L16.4842 458.685 L64.0042 470.62 L64.0042 478.705 L22.7544 488.731 L64.0042 498.852 L64.0042 506.937 L16.4842 518.841 Z" fill="#000000" fill-rule="nonzero" fill-opacity="1" /><path clip-path="url(#clip040)" d="M14.5426 451.332 L14.5426 446.24 Q22.0542 441.465 29.2474 439.11 Q36.4406 436.723 43.5384 436.723 Q50.668 436.723 57.8931 439.11 Q65.1182 441.465 72.5979 446.24 L72.5979 451.332 Q65.3091 447.099 58.1159 445.03 Q50.8908 442.93 43.5384 442.93 Q36.186 442.93 29.0246 445.03 Q21.8632 447.099 14.5426 451.332 Z" fill="#000000" fill-rule="nonzero" fill-opacity="1" /><polyline clip-path="url(#clip041)" style="stroke:#009af9; stroke-linecap:round; stroke-linejoin:round; stroke-width:4; stroke-opacity:1; fill:none" points="292.4,1115.4 379.371,1115.4 466.343,1115.4 553.314,1115.4 640.286,1115.4 727.258,1115.4 814.229,1115.4 901.201,1115.4 988.172,945.04 1075.14,840.885 1162.12,675.338 1249.09,78.3783 1336.06,200.579 1423.03,256.501 1510,389.753 1596.97,735.574 1683.94,1041.48 1770.92,1115.4 1857.89,1115.4 1944.86,1115.4 2031.83,1115.4 2118.8,1115.4 2205.77,1115.4 2292.75,1115.4 "/>
<polyline clip-path="url(#clip041)" style="stroke:#e26f46; stroke-linecap:round; stroke-linejoin:round; stroke-width:4; stroke-opacity:1; fill:none" points="292.4,1116.19 379.371,1116.19 466.343,1116.19 553.314,1116.19 640.286,1116.19 727.258,1116.19 814.229,1116.19 901.201,1116.19 988.172,969.812 1075.14,867.794 1162.12,705.792 1249.09,123.143 1336.06,242.207 1423.03,296.729 1510,426.733 1596.97,764.69 1683.94,1064.29 1770.92,1116.19 1857.89,1116.19 1944.86,1116.19 2031.83,1116.19 2118.8,1116.19 2205.77,1116.19 2292.75,1116.19 "/>
<path clip-path="url(#clip040)" d="M2007.66 239.433 L2282.08 239.433 L2282.08 83.9133 L2007.66 83.9133  Z" fill="#ffffff" fill-rule="evenodd" fill-opacity="1"/>
<polyline clip-path="url(#clip040)" style="stroke:#000000; stroke-linecap:round; stroke-linejoin:round; stroke-width:4; stroke-opacity:1; fill:none" points="2007.66,239.433 2282.08,239.433 2282.08,83.9133 2007.66,83.9133 2007.66,239.433 "/>
<polyline clip-path="url(#clip040)" style="stroke:#009af9; stroke-linecap:round; stroke-linejoin:round; stroke-width:4; stroke-opacity:1; fill:none" points="2031.22,135.753 2172.57,135.753 "/>
<path clip-path="url(#clip040)" d="M2200.81 122.316 L2200.81 149.191 L2206.46 149.191 Q2213.61 149.191 2216.92 145.95 Q2220.25 142.709 2220.25 135.719 Q2220.25 128.774 2216.92 125.557 Q2213.61 122.316 2206.46 122.316 L2200.81 122.316 M2196.13 118.473 L2205.74 118.473 Q2215.79 118.473 2220.49 122.663 Q2225.18 126.83 2225.18 135.719 Q2225.18 144.654 2220.46 148.844 Q2215.74 153.033 2205.74 153.033 L2196.13 153.033 L2196.13 118.473 Z" fill="#000000" fill-rule="nonzero" fill-opacity="1" /><path clip-path="url(#clip040)" d="M2258.52 121.135 L2258.52 126.066 Q2256.16 123.867 2253.47 122.779 Q2250.81 121.691 2247.8 121.691 Q2241.87 121.691 2238.73 125.325 Q2235.58 128.936 2235.58 135.788 Q2235.58 142.617 2238.73 146.251 Q2241.87 149.862 2247.8 149.862 Q2250.81 149.862 2253.47 148.774 Q2256.16 147.686 2258.52 145.487 L2258.52 150.371 Q2256.06 152.038 2253.31 152.871 Q2250.58 153.705 2247.52 153.705 Q2239.67 153.705 2235.16 148.913 Q2230.65 144.098 2230.65 135.788 Q2230.65 127.455 2235.16 122.663 Q2239.67 117.848 2247.52 117.848 Q2250.62 117.848 2253.36 118.682 Q2256.11 119.492 2258.52 121.135 Z" fill="#000000" fill-rule="nonzero" fill-opacity="1" /><polyline clip-path="url(#clip040)" style="stroke:#e26f46; stroke-linecap:round; stroke-linejoin:round; stroke-width:4; stroke-opacity:1; fill:none" points="2031.22,187.593 2172.57,187.593 "/>
<path clip-path="url(#clip040)" d="M2211.97 174.92 L2205.62 192.119 L2218.33 192.119 L2211.97 174.92 M2209.33 170.313 L2214.63 170.313 L2227.8 204.873 L2222.94 204.873 L2219.79 196.008 L2204.21 196.008 L2201.06 204.873 L2196.13 204.873 L2209.33 170.313 Z" fill="#000000" fill-rule="nonzero" fill-opacity="1" /><path clip-path="url(#clip040)" d="M2257.89 172.975 L2257.89 177.906 Q2255.53 175.707 2252.85 174.619 Q2250.18 173.531 2247.17 173.531 Q2241.25 173.531 2238.1 177.165 Q2234.95 180.776 2234.95 187.628 Q2234.95 194.457 2238.1 198.091 Q2241.25 201.702 2247.17 201.702 Q2250.18 201.702 2252.85 200.614 Q2255.53 199.526 2257.89 197.327 L2257.89 202.211 Q2255.44 203.878 2252.68 204.711 Q2249.95 205.545 2246.9 205.545 Q2239.05 205.545 2234.54 200.753 Q2230.02 195.938 2230.02 187.628 Q2230.02 179.295 2234.54 174.503 Q2239.05 169.688 2246.9 169.688 Q2250 169.688 2252.73 170.522 Q2255.49 171.332 2257.89 172.975 Z" fill="#000000" fill-rule="nonzero" fill-opacity="1" /></svg>
